<mxfile host="Electron" agent="Mozilla/5.0 (Windows NT 10.0; Win64; x64) AppleWebKit/537.36 (KHTML, like Gecko) draw.io/26.2.15 Chrome/134.0.6998.205 Electron/35.2.1 Safari/537.36" version="26.2.15">
  <diagram name="Page-1" id="2ca16b54-16f6-2749-3443-fa8db7711227">
    <mxGraphModel dx="3341" dy="10879" grid="1" gridSize="10" guides="1" tooltips="1" connect="1" arrows="1" fold="1" page="1" pageScale="1" pageWidth="1100" pageHeight="850" background="none" math="0" shadow="1">
      <root>
        <mxCell id="0" />
        <mxCell id="1" parent="0" />
        <mxCell id="-1b3vE4YZ-zce0Uezh61-1" value="&lt;b style=&quot;color: light-dark(rgb(0, 0, 0), rgb(255, 255, 255)); text-wrap-mode: wrap; background-color: transparent;&quot;&gt;&lt;br&gt;Сущность&lt;/b&gt;" style="verticalAlign=middle;align=center;overflow=fill;html=1;rounded=0;shadow=0;comic=0;labelBackgroundColor=none;strokeWidth=1;fontFamily=Verdana;fontSize=19;labelBorderColor=#009900;whiteSpace=wrap;" parent="1" vertex="1">
          <mxGeometry x="5990" y="-9578.25" width="340" height="70" as="geometry" />
        </mxCell>
        <mxCell id="-1b3vE4YZ-zce0Uezh61-2" value="&lt;b&gt;Атрибут&lt;/b&gt;" style="ellipse;whiteSpace=wrap;html=1;fillColor=default;strokeColor=#000099;labelBackgroundColor=none;fontSize=19;" parent="1" vertex="1">
          <mxGeometry x="5990" y="-9478.25" width="340" height="106.5" as="geometry" />
        </mxCell>
        <mxCell id="-1b3vE4YZ-zce0Uezh61-3" value="Связь&lt;br&gt;(&lt;i&gt;действие&lt;/i&gt;)" style="rhombus;whiteSpace=wrap;html=1;fillColor=default;strokeColor=#82b366;fontStyle=1;fontSize=19;" parent="1" vertex="1">
          <mxGeometry x="6000" y="-9338.25" width="320" height="140" as="geometry" />
        </mxCell>
        <mxCell id="-1b3vE4YZ-zce0Uezh61-4" value="&lt;div style=&quot;box-sizing: border-box; width: 100%; background-image: initial; background-position: initial; background-size: initial; background-repeat: initial; background-attachment: initial; background-origin: initial; background-clip: initial; padding: 2px;&quot;&gt;&lt;div style=&quot;&quot;&gt;&lt;b&gt;&lt;br&gt;&lt;/b&gt;&lt;div style=&quot;text-align: center;&quot;&gt;&lt;span style=&quot;background-color: transparent; color: light-dark(rgb(0, 0, 0), rgb(255, 255, 255));&quot;&gt;&lt;font style=&quot;&quot;&gt;&lt;span style=&quot;font-weight: bold; font-size: 16px;&quot;&gt;Субьектная сущность&lt;/span&gt;&lt;br&gt;&lt;font style=&quot;font-size: 14px;&quot;&gt;(&lt;i style=&quot;&quot;&gt;реальная жизнь - ключевой функционал&lt;/i&gt;)&lt;/font&gt;&lt;/font&gt;&lt;/span&gt;&lt;/div&gt;&lt;/div&gt;&lt;/div&gt;" style="verticalAlign=top;align=left;overflow=fill;html=1;rounded=0;shadow=0;comic=0;labelBackgroundColor=none;strokeWidth=1;fontFamily=Verdana;fontSize=12;labelBorderColor=#0000FF;whiteSpace=wrap;fillColor=#33FF99;strokeColor=#00994D;" parent="1" vertex="1">
          <mxGeometry x="4355" y="-9600" width="380" height="90" as="geometry" />
        </mxCell>
        <mxCell id="-1b3vE4YZ-zce0Uezh61-5" value="&lt;font style=&quot;&quot;&gt;&lt;br&gt;&lt;span style=&quot;font-weight: bold; font-size: 16px;&quot;&gt;Процессная сущность&lt;/span&gt;&lt;br&gt;&lt;font style=&quot;font-size: 14px;&quot;&gt;&lt;i style=&quot;&quot;&gt;(Процессы&amp;nbsp; в&amp;nbsp; системе)&lt;/i&gt;&lt;/font&gt;&lt;/font&gt;" style="verticalAlign=middle;align=center;overflow=fill;html=1;rounded=0;shadow=0;comic=0;labelBackgroundColor=none;strokeWidth=1;fontFamily=Verdana;fontSize=12;labelBorderColor=#0000FF;whiteSpace=wrap;fillColor=#66B2FF;strokeColor=#000099;" parent="1" vertex="1">
          <mxGeometry x="4355" y="-9480" width="380" height="80" as="geometry" />
        </mxCell>
        <mxCell id="-1b3vE4YZ-zce0Uezh61-6" value="&lt;font style=&quot;font-size: 16px;&quot;&gt;&lt;b&gt;&lt;br&gt;Справочная сущность&lt;/b&gt;&lt;/font&gt;" style="verticalAlign=middle;align=center;overflow=fill;html=1;rounded=0;shadow=0;comic=0;labelBackgroundColor=none;strokeWidth=1;fontFamily=Verdana;fontSize=12;labelBorderColor=#0000FF;whiteSpace=wrap;fillColor=#FFB366;strokeColor=#994C00;" parent="1" vertex="1">
          <mxGeometry x="4355" y="-9350" width="380" height="80" as="geometry" />
        </mxCell>
        <mxCell id="-1b3vE4YZ-zce0Uezh61-7" value="&lt;span style=&quot;font-size: 11px; text-wrap-mode: nowrap;&quot;&gt;&lt;b&gt;Основные &lt;br&gt;действия&lt;br&gt;&amp;nbsp;пользователей&lt;/b&gt;&lt;/span&gt;" style="rhombus;whiteSpace=wrap;html=1;fillColor=#FF66B3;strokeColor=#990000;labelBackgroundColor=none;" parent="1" vertex="1">
          <mxGeometry x="4870" y="-9610" width="150" height="170" as="geometry" />
        </mxCell>
        <mxCell id="-1b3vE4YZ-zce0Uezh61-8" value="&lt;span style=&quot;font-size: 11px; text-wrap-mode: nowrap;&quot;&gt;&lt;b&gt;Действие пользователей&lt;br&gt;&lt;/b&gt;&lt;/span&gt;" style="rhombus;whiteSpace=wrap;html=1;fillColor=#33FF99;strokeColor=#00994D;labelBackgroundColor=none;" parent="1" vertex="1">
          <mxGeometry x="5060" y="-9610" width="150" height="170" as="geometry" />
        </mxCell>
        <mxCell id="-1b3vE4YZ-zce0Uezh61-9" value="" style="endArrow=none;html=1;rounded=0;startArrow=none;startFill=0;endFill=0;strokeColor=#0000CC;strokeWidth=3;" parent="1" edge="1">
          <mxGeometry width="50" height="50" relative="1" as="geometry">
            <mxPoint x="5500" y="-9330" as="sourcePoint" />
            <mxPoint x="4970" y="-9330" as="targetPoint" />
          </mxGeometry>
        </mxCell>
        <mxCell id="-1b3vE4YZ-zce0Uezh61-10" value="&lt;b&gt;&lt;font style=&quot;font-size: 17px;&quot;&gt;Прямая связь&lt;/font&gt;&lt;/b&gt;" style="edgeLabel;html=1;align=center;verticalAlign=middle;resizable=0;points=[];labelBackgroundColor=#66B2FF;" parent="-1b3vE4YZ-zce0Uezh61-9" vertex="1" connectable="0">
          <mxGeometry x="-0.0638" y="1" relative="1" as="geometry">
            <mxPoint as="offset" />
          </mxGeometry>
        </mxCell>
        <mxCell id="-1b3vE4YZ-zce0Uezh61-11" value="" style="endArrow=none;html=1;rounded=0;startArrow=none;startFill=0;endFill=0;strokeColor=#33FF99;strokeWidth=3;dashed=1;" parent="1" edge="1">
          <mxGeometry width="50" height="50" relative="1" as="geometry">
            <mxPoint x="5500" y="-9240" as="sourcePoint" />
            <mxPoint x="4970" y="-9240" as="targetPoint" />
          </mxGeometry>
        </mxCell>
        <mxCell id="-1b3vE4YZ-zce0Uezh61-12" value="&lt;b&gt;&lt;font style=&quot;font-size: 17px;&quot;&gt;Косвенная&amp;nbsp; связь&lt;/font&gt;&lt;/b&gt;" style="edgeLabel;html=1;align=center;verticalAlign=middle;resizable=0;points=[];labelBackgroundColor=#00CC66;" parent="-1b3vE4YZ-zce0Uezh61-11" vertex="1" connectable="0">
          <mxGeometry x="-0.0638" y="1" relative="1" as="geometry">
            <mxPoint as="offset" />
          </mxGeometry>
        </mxCell>
        <mxCell id="-1b3vE4YZ-zce0Uezh61-13" value="&lt;div style=&quot;box-sizing: border-box; width: 100%; background-image: initial; background-position: initial; background-size: initial; background-repeat: initial; background-attachment: initial; background-origin: initial; background-clip: initial; padding: 2px;&quot;&gt;&lt;div style=&quot;text-align: center;&quot;&gt;&lt;b style=&quot;font-size: 16px;&quot;&gt;&lt;br&gt;Историческая сущность&lt;/b&gt;&lt;/div&gt;&lt;/div&gt;" style="verticalAlign=top;align=left;overflow=fill;html=1;rounded=0;shadow=0;comic=0;labelBackgroundColor=none;strokeWidth=1;fontFamily=Verdana;fontSize=12;labelBorderColor=#0000FF;whiteSpace=wrap;fillColor=#0AD080;strokeColor=#006600;" parent="1" vertex="1">
          <mxGeometry x="4360" y="-9200" width="375" height="90" as="geometry" />
        </mxCell>
        <mxCell id="-1b3vE4YZ-zce0Uezh61-14" style="edgeStyle=orthogonalEdgeStyle;rounded=0;orthogonalLoop=1;jettySize=auto;html=1;" parent="1" source="-1b3vE4YZ-zce0Uezh61-15" target="-1b3vE4YZ-zce0Uezh61-7" edge="1">
          <mxGeometry relative="1" as="geometry">
            <Array as="points">
              <mxPoint x="5275" y="-9650" />
              <mxPoint x="4945" y="-9650" />
            </Array>
          </mxGeometry>
        </mxCell>
        <mxCell id="-1b3vE4YZ-zce0Uezh61-15" value="Цвета действий и атрибутов и линий:" style="verticalAlign=middle;align=center;overflow=fill;html=1;rounded=0;shadow=0;comic=0;labelBackgroundColor=none;strokeWidth=1;fontFamily=Verdana;fontSize=19;labelBorderColor=#009900;whiteSpace=wrap;" parent="1" vertex="1">
          <mxGeometry x="5105" y="-9780" width="340" height="70" as="geometry" />
        </mxCell>
        <mxCell id="-1b3vE4YZ-zce0Uezh61-16" style="edgeStyle=orthogonalEdgeStyle;rounded=0;orthogonalLoop=1;jettySize=auto;html=1;entryX=0.5;entryY=0;entryDx=0;entryDy=0;exitX=0.5;exitY=1;exitDx=0;exitDy=0;" parent="1" source="-1b3vE4YZ-zce0Uezh61-15" target="-1b3vE4YZ-zce0Uezh61-8" edge="1">
          <mxGeometry relative="1" as="geometry">
            <mxPoint x="5145" y="-9690" as="sourcePoint" />
            <mxPoint x="4955" y="-9600" as="targetPoint" />
            <Array as="points">
              <mxPoint x="5275" y="-9650" />
              <mxPoint x="5135" y="-9650" />
            </Array>
          </mxGeometry>
        </mxCell>
        <mxCell id="-1b3vE4YZ-zce0Uezh61-17" style="edgeStyle=orthogonalEdgeStyle;rounded=0;orthogonalLoop=1;jettySize=auto;html=1;exitX=0.5;exitY=1;exitDx=0;exitDy=0;entryX=0.5;entryY=0;entryDx=0;entryDy=0;" parent="1" source="-1b3vE4YZ-zce0Uezh61-15" target="-1b3vE4YZ-zce0Uezh61-18" edge="1">
          <mxGeometry relative="1" as="geometry">
            <mxPoint x="5145" y="-9690" as="sourcePoint" />
            <mxPoint x="5320.000000000002" y="-9609.999999999998" as="targetPoint" />
            <Array as="points">
              <mxPoint x="5275" y="-9650" />
              <mxPoint x="5320" y="-9650" />
            </Array>
          </mxGeometry>
        </mxCell>
        <mxCell id="-1b3vE4YZ-zce0Uezh61-18" value="&lt;b&gt;Генерируется или делает системой&lt;/b&gt;" style="ellipse;whiteSpace=wrap;html=1;fillColor=#66B2FF;strokeColor=#000099;labelBackgroundColor=none;fontSize=19;" parent="1" vertex="1">
          <mxGeometry x="5220" y="-9600" width="200" height="106.5" as="geometry" />
        </mxCell>
        <mxCell id="-1b3vE4YZ-zce0Uezh61-19" value="&lt;span style=&quot;font-size: 11px; text-wrap-mode: nowrap;&quot;&gt;&lt;b&gt;Относится к справочной&amp;nbsp; &lt;br&gt;информации&lt;/b&gt;&lt;/span&gt;" style="rhombus;whiteSpace=wrap;html=1;fillColor=#FFB366;strokeColor=#994C00;gradientColor=none;labelBackgroundColor=none;" parent="1" vertex="1">
          <mxGeometry x="5460" y="-9608.25" width="160" height="168.25" as="geometry" />
        </mxCell>
        <mxCell id="-1b3vE4YZ-zce0Uezh61-20" style="rounded=0;orthogonalLoop=1;jettySize=auto;html=1;exitX=0.5;exitY=1;exitDx=0;exitDy=0;entryX=0.5;entryY=0;entryDx=0;entryDy=0;edgeStyle=orthogonalEdgeStyle;" parent="1" source="-1b3vE4YZ-zce0Uezh61-15" target="-1b3vE4YZ-zce0Uezh61-19" edge="1">
          <mxGeometry relative="1" as="geometry">
            <mxPoint x="5380" y="-9690" as="sourcePoint" />
            <mxPoint x="5565" y="-9568" as="targetPoint" />
            <Array as="points">
              <mxPoint x="5275" y="-9650" />
              <mxPoint x="5540" y="-9650" />
            </Array>
          </mxGeometry>
        </mxCell>
        <mxCell id="-1b3vE4YZ-zce0Uezh61-21" value="Цвета фигур:" style="verticalAlign=middle;align=center;overflow=fill;html=1;rounded=0;shadow=0;comic=0;labelBackgroundColor=none;strokeWidth=1;fontFamily=Verdana;fontSize=19;labelBorderColor=#009900;whiteSpace=wrap;" parent="1" vertex="1">
          <mxGeometry x="3870" y="-9400" width="340" height="70" as="geometry" />
        </mxCell>
        <mxCell id="-1b3vE4YZ-zce0Uezh61-22" style="rounded=0;orthogonalLoop=1;jettySize=auto;html=1;exitX=1;exitY=0.5;exitDx=0;exitDy=0;entryX=0;entryY=0.5;entryDx=0;entryDy=0;edgeStyle=orthogonalEdgeStyle;" parent="1" source="-1b3vE4YZ-zce0Uezh61-21" target="-1b3vE4YZ-zce0Uezh61-13" edge="1">
          <mxGeometry relative="1" as="geometry">
            <mxPoint x="4354.92" y="-9225" as="sourcePoint" />
            <mxPoint x="4024.92" y="-9125" as="targetPoint" />
            <Array as="points">
              <mxPoint x="4280" y="-9365" />
              <mxPoint x="4280" y="-9155" />
            </Array>
          </mxGeometry>
        </mxCell>
        <mxCell id="-1b3vE4YZ-zce0Uezh61-23" style="rounded=0;orthogonalLoop=1;jettySize=auto;html=1;exitX=1;exitY=0.5;exitDx=0;exitDy=0;entryX=0;entryY=0.5;entryDx=0;entryDy=0;edgeStyle=orthogonalEdgeStyle;" parent="1" source="-1b3vE4YZ-zce0Uezh61-21" target="-1b3vE4YZ-zce0Uezh61-6" edge="1">
          <mxGeometry relative="1" as="geometry">
            <mxPoint x="4120" y="-9363" as="sourcePoint" />
            <mxPoint x="4370" y="-9145" as="targetPoint" />
          </mxGeometry>
        </mxCell>
        <mxCell id="-1b3vE4YZ-zce0Uezh61-24" style="rounded=0;orthogonalLoop=1;jettySize=auto;html=1;exitX=1;exitY=0.5;exitDx=0;exitDy=0;entryX=0;entryY=0.5;entryDx=0;entryDy=0;edgeStyle=orthogonalEdgeStyle;" parent="1" source="-1b3vE4YZ-zce0Uezh61-21" target="-1b3vE4YZ-zce0Uezh61-5" edge="1">
          <mxGeometry relative="1" as="geometry">
            <mxPoint x="4120" y="-9363" as="sourcePoint" />
            <mxPoint x="4365" y="-9300" as="targetPoint" />
          </mxGeometry>
        </mxCell>
        <mxCell id="-1b3vE4YZ-zce0Uezh61-25" style="rounded=0;orthogonalLoop=1;jettySize=auto;html=1;exitX=1;exitY=0.5;exitDx=0;exitDy=0;entryX=0;entryY=0.5;entryDx=0;entryDy=0;edgeStyle=orthogonalEdgeStyle;" parent="1" source="-1b3vE4YZ-zce0Uezh61-21" target="-1b3vE4YZ-zce0Uezh61-4" edge="1">
          <mxGeometry relative="1" as="geometry">
            <mxPoint x="4060" y="-9463" as="sourcePoint" />
            <mxPoint x="4305" y="-9530" as="targetPoint" />
          </mxGeometry>
        </mxCell>
        <mxCell id="-1b3vE4YZ-zce0Uezh61-26" value="&lt;div style=&quot;box-sizing: border-box; width: 100%; background-image: initial; background-position: initial; background-size: initial; background-repeat: initial; background-attachment: initial; background-origin: initial; background-clip: initial; padding: 2px;&quot;&gt;&lt;div style=&quot;text-align: center;&quot;&gt;&lt;span style=&quot;color: light-dark(rgb(0, 0, 0), rgb(255, 255, 255));&quot;&gt;&lt;b&gt;&lt;u style=&quot;&quot;&gt;&lt;font style=&quot;font-size: 16px;&quot;&gt;Пользователь&lt;/font&gt;&lt;br&gt;&lt;/u&gt;&lt;br&gt;&lt;/b&gt;&lt;/span&gt;&lt;/div&gt;&lt;table style=&quot;font-weight: 700; border: 1px solid rgb(0, 0, 0); border-collapse: collapse;&quot; border=&quot;1&quot;&gt;&lt;tbody&gt;&lt;tr&gt;&lt;td&gt;&lt;font face=&quot;Helvetica&quot;&gt;usr_id&lt;/font&gt;&lt;/td&gt;&lt;td&gt;&lt;font face=&quot;Helvetica&quot; style=&quot;font-weight: normal;&quot;&gt;UUID&lt;/font&gt;&lt;/td&gt;&lt;/tr&gt;&lt;tr&gt;&lt;td&gt;&lt;font face=&quot;Helvetica&quot;&gt;reg_date&lt;/font&gt;&lt;/td&gt;&lt;td&gt;&lt;font face=&quot;Helvetica&quot; style=&quot;font-weight: normal;&quot;&gt;DATE&lt;/font&gt;&lt;/td&gt;&lt;/tr&gt;&lt;tr&gt;&lt;td&gt;&lt;font face=&quot;Helvetica&quot;&gt;acc_type&lt;/font&gt;&lt;/td&gt;&lt;td&gt;&lt;font face=&quot;Helvetica&quot; style=&quot;font-weight: normal;&quot;&gt;BOOLEAN&lt;/font&gt;&lt;/td&gt;&lt;/tr&gt;&lt;tr&gt;&lt;td&gt;&lt;font face=&quot;Helvetica&quot;&gt;login&lt;/font&gt;&lt;/td&gt;&lt;td&gt;&lt;font face=&quot;Helvetica&quot; style=&quot;font-weight: normal;&quot;&gt;VARCHAR(50)&lt;/font&gt;&lt;/td&gt;&lt;/tr&gt;&lt;tr&gt;&lt;td&gt;&lt;font face=&quot;Helvetica&quot;&gt;pass_hash&lt;/font&gt;&lt;/td&gt;&lt;td&gt;&lt;font face=&quot;Helvetica&quot; style=&quot;font-weight: normal;&quot;&gt;VARCHAR(64)&lt;/font&gt;&lt;/td&gt;&lt;/tr&gt;&lt;tr&gt;&lt;td&gt;&lt;font face=&quot;Helvetica&quot;&gt;full_name&lt;/font&gt;&lt;/td&gt;&lt;td&gt;&lt;font face=&quot;Helvetica&quot; style=&quot;font-weight: normal;&quot;&gt;VARCHAR(100)&lt;/font&gt;&lt;/td&gt;&lt;/tr&gt;&lt;tr&gt;&lt;td&gt;&lt;font face=&quot;Helvetica&quot;&gt;avatar_url&lt;/font&gt;&lt;/td&gt;&lt;td&gt;&lt;font face=&quot;Helvetica&quot; style=&quot;font-weight: normal;&quot;&gt;VARCHAR(200)&lt;/font&gt;&lt;/td&gt;&lt;/tr&gt;&lt;tr&gt;&lt;td&gt;&lt;font face=&quot;Helvetica&quot;&gt;phone&lt;/font&gt;&lt;/td&gt;&lt;td&gt;&lt;font face=&quot;Helvetica&quot; style=&quot;font-weight: normal;&quot;&gt;VARCHAR(20)&lt;/font&gt;&lt;/td&gt;&lt;/tr&gt;&lt;tr&gt;&lt;td&gt;&lt;font face=&quot;Helvetica&quot;&gt;user_email&lt;/font&gt;&lt;/td&gt;&lt;td&gt;&lt;font face=&quot;Helvetica&quot; style=&quot;font-weight: normal;&quot;&gt;VARCHAR(100)&lt;/font&gt;&lt;/td&gt;&lt;/tr&gt;&lt;/tbody&gt;&lt;/table&gt;&lt;/div&gt;" style="verticalAlign=top;align=left;overflow=fill;html=1;rounded=0;shadow=0;comic=0;labelBackgroundColor=#33FF99;strokeWidth=1;fontFamily=Verdana;fontSize=12;labelBorderColor=#009900;whiteSpace=wrap;strokeColor=#00994D;fillColor=#33FF99;" parent="1" vertex="1">
          <mxGeometry x="-1837.6" y="-5311" width="340" height="291" as="geometry" />
        </mxCell>
        <mxCell id="-1b3vE4YZ-zce0Uezh61-27" value="&lt;div style=&quot;box-sizing: border-box; width: 100%; background-image: initial; background-position: initial; background-size: initial; background-repeat: initial; background-attachment: initial; background-origin: initial; background-clip: initial; padding: 2px;&quot;&gt;&lt;div style=&quot;text-align: center;&quot;&gt;&lt;span style=&quot;color: light-dark(rgb(0, 0, 0), rgb(255, 255, 255));&quot;&gt;&lt;b style=&quot;&quot;&gt;&lt;u style=&quot;&quot;&gt;&lt;font style=&quot;font-size: 16px;&quot;&gt;Запись&lt;br&gt;&lt;font face=&quot;Helvetica&quot;&gt;&lt;br&gt;&lt;/font&gt;&lt;/font&gt;&lt;/u&gt;&lt;/b&gt;&lt;/span&gt;&lt;/div&gt;&lt;table style=&quot;font-weight: 700; border: 1px solid rgb(0, 0, 0); border-collapse: collapse;&quot; border=&quot;1&quot;&gt;&lt;tbody&gt;&lt;tr&gt;&lt;td&gt;&lt;font face=&quot;Helvetica&quot;&gt;record_id&lt;/font&gt;&lt;/td&gt;&lt;td&gt;&lt;span style=&quot;font-weight: 400;&quot;&gt;&lt;font face=&quot;Helvetica&quot;&gt;UUID&lt;/font&gt;&lt;/span&gt;&lt;/td&gt;&lt;/tr&gt;&lt;tr&gt;&lt;td&gt;&lt;font face=&quot;Helvetica&quot;&gt;end_date&lt;/font&gt;&lt;/td&gt;&lt;td&gt;&lt;span style=&quot;font-weight: 400;&quot;&gt;&lt;font face=&quot;Helvetica&quot;&gt;DATE&lt;/font&gt;&lt;/span&gt;&lt;/td&gt;&lt;/tr&gt;&lt;tr&gt;&lt;td&gt;&lt;font face=&quot;Helvetica&quot;&gt;end_time&lt;/font&gt;&lt;/td&gt;&lt;td&gt;&lt;span style=&quot;font-weight: 400;&quot;&gt;&lt;font face=&quot;Helvetica&quot;&gt;TIME&lt;/font&gt;&lt;/span&gt;&lt;/td&gt;&lt;/tr&gt;&lt;tr&gt;&lt;td&gt;&lt;font face=&quot;Helvetica&quot;&gt;review_flag&lt;/font&gt;&lt;/td&gt;&lt;td&gt;&lt;span style=&quot;font-weight: 400;&quot;&gt;&lt;font face=&quot;Helvetica&quot;&gt;BOOLEAN&lt;/font&gt;&lt;/span&gt;&lt;/td&gt;&lt;/tr&gt;&lt;/tbody&gt;&lt;/table&gt;&lt;/div&gt;" style="verticalAlign=top;align=left;overflow=fill;html=1;rounded=0;shadow=0;comic=0;labelBackgroundColor=#33FF99;strokeWidth=1;fontFamily=Verdana;fontSize=12;labelBorderColor=#009900;whiteSpace=wrap;strokeColor=#00994D;fillColor=#33FF99;" parent="1" vertex="1">
          <mxGeometry x="3280" y="-5470" width="340" height="150" as="geometry" />
        </mxCell>
        <mxCell id="-1b3vE4YZ-zce0Uezh61-28" value="&lt;div style=&quot;box-sizing: border-box; width: 100%; background-image: initial; background-position: initial; background-size: initial; background-repeat: initial; background-attachment: initial; background-origin: initial; background-clip: initial; padding: 2px;&quot;&gt;&lt;div style=&quot;text-align: center;&quot;&gt;&lt;span style=&quot;color: light-dark(rgb(0, 0, 0), rgb(255, 255, 255));&quot;&gt;&lt;b style=&quot;&quot;&gt;&lt;u style=&quot;&quot;&gt;&lt;font style=&quot;font-size: 16px;&quot;&gt;Мастер&lt;br&gt;&lt;br&gt;&lt;/font&gt;&lt;/u&gt;&lt;/b&gt;&lt;/span&gt;&lt;/div&gt;&lt;table style=&quot;font-weight: 700; border: 1px solid rgb(0, 0, 0); border-collapse: collapse;&quot; border=&quot;1&quot;&gt;&lt;tbody&gt;&lt;tr&gt;&lt;td&gt;&lt;font face=&quot;Helvetica&quot;&gt;master_id&lt;/font&gt;&lt;/td&gt;&lt;td&gt;&lt;span style=&quot;font-weight: 400;&quot;&gt;&lt;font face=&quot;Helvetica&quot;&gt;UUID&lt;/font&gt;&lt;/span&gt;&lt;/td&gt;&lt;/tr&gt;&lt;tr&gt;&lt;td&gt;&lt;font face=&quot;Helvetica&quot;&gt;overall_rating&lt;/font&gt;&lt;/td&gt;&lt;td&gt;&lt;span style=&quot;font-weight: 400;&quot;&gt;&lt;font face=&quot;Helvetica&quot;&gt;DATE&lt;/font&gt;&lt;/span&gt;&lt;/td&gt;&lt;/tr&gt;&lt;tr&gt;&lt;td&gt;&lt;font face=&quot;Helvetica&quot;&gt;master_percent&lt;/font&gt;&lt;/td&gt;&lt;td&gt;&lt;span style=&quot;font-weight: 400;&quot;&gt;&lt;font face=&quot;Helvetica&quot;&gt;DECIMAL(3, 2)&lt;/font&gt;&lt;/span&gt;&lt;/td&gt;&lt;/tr&gt;&lt;tr&gt;&lt;td&gt;&lt;font face=&quot;Helvetica&quot;&gt;total_earnings&lt;/font&gt;&lt;/td&gt;&lt;td&gt;&lt;span style=&quot;font-weight: 400;&quot;&gt;&lt;font face=&quot;Helvetica&quot;&gt;DECIMAL(5, 2)&lt;/font&gt;&lt;/span&gt;&lt;/td&gt;&lt;/tr&gt;&lt;tr&gt;&lt;td&gt;&lt;font face=&quot;Helvetica&quot;&gt;total_earnings&lt;/font&gt;&lt;/td&gt;&lt;td&gt;&lt;span style=&quot;font-weight: 400;&quot;&gt;&lt;font face=&quot;Helvetica&quot;&gt;DECIMAL(10, 2)&lt;/font&gt;&lt;/span&gt;&lt;/td&gt;&lt;/tr&gt;&lt;tr&gt;&lt;td&gt;&lt;font face=&quot;Helvetica&quot;&gt;master_login&lt;/font&gt;&lt;/td&gt;&lt;td&gt;&lt;span style=&quot;font-weight: 400;&quot;&gt;&lt;font face=&quot;Helvetica&quot;&gt;VARCHAR(50)&lt;/font&gt;&lt;/span&gt;&lt;/td&gt;&lt;/tr&gt;&lt;tr&gt;&lt;td&gt;&lt;font face=&quot;Helvetica&quot;&gt;master_pass_hash&lt;/font&gt;&lt;/td&gt;&lt;td&gt;&lt;span style=&quot;font-weight: 400;&quot;&gt;&lt;font face=&quot;Helvetica&quot;&gt;VARCHAR(64)&lt;/font&gt;&lt;/span&gt;&lt;/td&gt;&lt;/tr&gt;&lt;tr&gt;&lt;td&gt;&lt;font face=&quot;Helvetica&quot;&gt;master_full_name&lt;/font&gt;&lt;/td&gt;&lt;td&gt;&lt;span style=&quot;font-weight: 400;&quot;&gt;&lt;font face=&quot;Helvetica&quot;&gt;VARCHAR(100)&lt;/font&gt;&lt;/span&gt;&lt;/td&gt;&lt;/tr&gt;&lt;tr&gt;&lt;td&gt;&lt;font face=&quot;Helvetica&quot;&gt;master_avatar_url&lt;/font&gt;&lt;/td&gt;&lt;td&gt;&lt;span style=&quot;font-weight: 400;&quot;&gt;&lt;font face=&quot;Helvetica&quot;&gt;VARCHAR(200)&lt;/font&gt;&lt;/span&gt;&lt;/td&gt;&lt;/tr&gt;&lt;tr&gt;&lt;td&gt;&lt;font face=&quot;Helvetica&quot;&gt;master_phone&lt;/font&gt;&lt;/td&gt;&lt;td&gt;&lt;span style=&quot;font-weight: 400;&quot;&gt;&lt;font face=&quot;Helvetica&quot;&gt;VARCHAR(20)&lt;/font&gt;&lt;/span&gt;&lt;/td&gt;&lt;/tr&gt;&lt;tr&gt;&lt;td&gt;&lt;font face=&quot;Helvetica&quot;&gt;master_email&lt;/font&gt;&lt;/td&gt;&lt;td&gt;&lt;span style=&quot;font-weight: 400;&quot;&gt;&lt;font face=&quot;Helvetica&quot;&gt;VARCHAR(100)&lt;/font&gt;&lt;/span&gt;&lt;/td&gt;&lt;/tr&gt;&lt;/tbody&gt;&lt;/table&gt;&lt;/div&gt;" style="verticalAlign=top;align=left;overflow=fill;html=1;rounded=0;shadow=0;comic=0;labelBackgroundColor=#33FF99;strokeWidth=1;fontFamily=Verdana;fontSize=12;labelBorderColor=#009900;whiteSpace=wrap;strokeColor=#00994D;fillColor=#33FF99;" parent="1" vertex="1">
          <mxGeometry x="1780" y="-4560" width="340" height="290" as="geometry" />
        </mxCell>
        <mxCell id="-1b3vE4YZ-zce0Uezh61-29" value="&lt;div style=&quot;box-sizing: border-box; width: 100%; background-image: initial; background-position: initial; background-size: initial; background-repeat: initial; background-attachment: initial; background-origin: initial; background-clip: initial; padding: 2px;&quot;&gt;&lt;div style=&quot;text-align: center;&quot;&gt;&lt;span style=&quot;color: light-dark(rgb(0, 0, 0), rgb(255, 255, 255));&quot;&gt;&lt;b style=&quot;&quot;&gt;&lt;u style=&quot;&quot;&gt;&lt;font style=&quot;font-size: 16px;&quot;&gt;Менеджер&lt;br&gt;&lt;br&gt;&lt;/font&gt;&lt;/u&gt;&lt;/b&gt;&lt;/span&gt;&lt;/div&gt;&lt;table style=&quot;font-weight: 700; border: 1px solid rgb(0, 0, 0); border-collapse: collapse;&quot; border=&quot;1&quot;&gt;&lt;tbody&gt;&lt;tr&gt;&lt;td&gt;&lt;font face=&quot;Helvetica&quot;&gt;manager_id&lt;/font&gt;&lt;/td&gt;&lt;td&gt;&lt;span style=&quot;font-weight: 400;&quot;&gt;&lt;font face=&quot;Helvetica&quot;&gt;UUID&lt;/font&gt;&lt;/span&gt;&lt;/td&gt;&lt;/tr&gt;&lt;tr&gt;&lt;td&gt;&lt;font face=&quot;Helvetica&quot;&gt;manager_reg_date&lt;/font&gt;&lt;/td&gt;&lt;td&gt;&lt;span style=&quot;font-weight: 400;&quot;&gt;&lt;font face=&quot;Helvetica&quot;&gt;DATE&lt;/font&gt;&lt;/span&gt;&lt;/td&gt;&lt;/tr&gt;&lt;tr&gt;&lt;td&gt;&lt;font face=&quot;Helvetica&quot;&gt;work_hours&lt;/font&gt;&lt;/td&gt;&lt;td&gt;&lt;span style=&quot;font-weight: 400;&quot;&gt;&lt;font face=&quot;Helvetica&quot;&gt;INT&lt;/font&gt;&lt;/span&gt;&lt;/td&gt;&lt;/tr&gt;&lt;tr&gt;&lt;td&gt;&lt;font face=&quot;Helvetica&quot;&gt;hourly_rate&lt;/font&gt;&lt;/td&gt;&lt;td&gt;&lt;span style=&quot;font-weight: 400;&quot;&gt;&lt;font face=&quot;Helvetica&quot;&gt;DECIMAL(10, 2)&lt;/font&gt;&lt;/span&gt;&lt;/td&gt;&lt;/tr&gt;&lt;tr&gt;&lt;td&gt;&lt;font face=&quot;Helvetica&quot;&gt;payable_amount&lt;/font&gt;&lt;/td&gt;&lt;td&gt;&lt;span style=&quot;font-weight: 400;&quot;&gt;&lt;font face=&quot;Helvetica&quot;&gt;DECIMAL(10, 2)&lt;/font&gt;&lt;/span&gt;&lt;/td&gt;&lt;/tr&gt;&lt;tr&gt;&lt;td&gt;&lt;font face=&quot;Helvetica&quot;&gt;manager_login&lt;/font&gt;&lt;/td&gt;&lt;td&gt;&lt;span style=&quot;font-weight: 400;&quot;&gt;&lt;font face=&quot;Helvetica&quot;&gt;VARCHAR(50)&lt;/font&gt;&lt;/span&gt;&lt;/td&gt;&lt;/tr&gt;&lt;tr&gt;&lt;td&gt;&lt;font face=&quot;Helvetica&quot;&gt;manager_pass_hash&lt;/font&gt;&lt;/td&gt;&lt;td&gt;&lt;span style=&quot;font-weight: 400;&quot;&gt;&lt;font face=&quot;Helvetica&quot;&gt;VARCHAR(64)&lt;/font&gt;&lt;/span&gt;&lt;/td&gt;&lt;/tr&gt;&lt;tr&gt;&lt;td&gt;&lt;font face=&quot;Helvetica&quot;&gt;manager_full_name&lt;/font&gt;&lt;/td&gt;&lt;td&gt;&lt;span style=&quot;font-weight: 400;&quot;&gt;&lt;font face=&quot;Helvetica&quot;&gt;VARCHAR(100)&lt;/font&gt;&lt;/span&gt;&lt;/td&gt;&lt;/tr&gt;&lt;tr&gt;&lt;td&gt;&lt;font face=&quot;Helvetica&quot;&gt;manager_avatar_url&lt;/font&gt;&lt;/td&gt;&lt;td&gt;&lt;span style=&quot;font-weight: 400;&quot;&gt;&lt;font face=&quot;Helvetica&quot;&gt;VARCHAR(200)&lt;/font&gt;&lt;/span&gt;&lt;/td&gt;&lt;/tr&gt;&lt;tr&gt;&lt;td&gt;&lt;font face=&quot;Helvetica&quot;&gt;manager_phone&lt;/font&gt;&lt;/td&gt;&lt;td&gt;&lt;span style=&quot;font-weight: 400;&quot;&gt;&lt;font face=&quot;Helvetica&quot;&gt;VARCHAR(20)&lt;/font&gt;&lt;/span&gt;&lt;/td&gt;&lt;/tr&gt;&lt;tr&gt;&lt;td&gt;&lt;font face=&quot;Helvetica&quot;&gt;manager_email&lt;/font&gt;&lt;/td&gt;&lt;td&gt;&lt;span style=&quot;font-weight: 400;&quot;&gt;&lt;font face=&quot;Helvetica&quot;&gt;VARCHAR(100)&lt;/font&gt;&lt;/span&gt;&lt;/td&gt;&lt;/tr&gt;&lt;/tbody&gt;&lt;/table&gt;&lt;/div&gt;" style="verticalAlign=top;align=left;overflow=fill;html=1;rounded=0;shadow=0;comic=0;labelBackgroundColor=#33FF99;strokeWidth=1;fontFamily=Verdana;fontSize=12;labelBorderColor=#009900;whiteSpace=wrap;strokeColor=#00994D;fillColor=#33FF99;" parent="1" vertex="1">
          <mxGeometry x="1040" y="-4423.5" width="340" height="343.5" as="geometry" />
        </mxCell>
        <mxCell id="-1b3vE4YZ-zce0Uezh61-30" value="&lt;div style=&quot;box-sizing: border-box; width: 100%; background-image: initial; background-position: initial; background-size: initial; background-repeat: initial; background-attachment: initial; background-origin: initial; background-clip: initial; padding: 2px;&quot;&gt;&lt;div style=&quot;text-align: center;&quot;&gt;&lt;b style=&quot;&quot;&gt;&lt;u style=&quot;&quot;&gt;&lt;font style=&quot;font-size: 16px;&quot;&gt;Администратор&lt;br&gt;&lt;font face=&quot;Helvetica&quot;&gt;&lt;br&gt;&lt;/font&gt;&lt;/font&gt;&lt;/u&gt;&lt;/b&gt;&lt;/div&gt;&lt;table style=&quot;font-weight: 700; border: 1px solid rgb(0, 0, 0); border-collapse: collapse;&quot; border=&quot;1&quot;&gt;&lt;tbody&gt;&lt;tr&gt;&lt;td&gt;&lt;font face=&quot;Helvetica&quot;&gt;admin_id&lt;/font&gt;&lt;/td&gt;&lt;td&gt;&lt;span style=&quot;font-weight: 400;&quot;&gt;&lt;font face=&quot;Helvetica&quot;&gt;UUID&lt;/font&gt;&lt;/span&gt;&lt;/td&gt;&lt;td&gt;&lt;font face=&quot;Helvetica&quot;&gt;&lt;br&gt;&lt;/font&gt;&lt;/td&gt;&lt;/tr&gt;&lt;tr&gt;&lt;td&gt;&lt;font face=&quot;Helvetica&quot;&gt;admin_reg_date&lt;/font&gt;&lt;/td&gt;&lt;td&gt;&lt;span style=&quot;font-weight: 400;&quot;&gt;&lt;font face=&quot;Helvetica&quot;&gt;DATE&lt;/font&gt;&lt;/span&gt;&lt;/td&gt;&lt;td&gt;&lt;font face=&quot;Helvetica&quot;&gt;&lt;br&gt;&lt;/font&gt;&lt;/td&gt;&lt;/tr&gt;&lt;tr&gt;&lt;td&gt;&lt;font face=&quot;Helvetica&quot;&gt;admin_login&lt;/font&gt;&lt;/td&gt;&lt;td&gt;&lt;span style=&quot;font-weight: 400;&quot;&gt;&lt;font face=&quot;Helvetica&quot;&gt;VARCHAR(50)&lt;/font&gt;&lt;/span&gt;&lt;/td&gt;&lt;td&gt;&lt;font face=&quot;Helvetica&quot;&gt;&lt;br&gt;&lt;/font&gt;&lt;/td&gt;&lt;/tr&gt;&lt;tr&gt;&lt;td&gt;&lt;font face=&quot;Helvetica&quot;&gt;admin_pass_hash&lt;/font&gt;&lt;/td&gt;&lt;td&gt;&lt;span style=&quot;font-weight: 400;&quot;&gt;&lt;font face=&quot;Helvetica&quot;&gt;VARCHAR(64)&lt;/font&gt;&lt;/span&gt;&lt;/td&gt;&lt;td&gt;&lt;font face=&quot;Helvetica&quot;&gt;&lt;br&gt;&lt;/font&gt;&lt;/td&gt;&lt;/tr&gt;&lt;tr&gt;&lt;td&gt;&lt;font face=&quot;Helvetica&quot;&gt;admin_full_name&lt;/font&gt;&lt;/td&gt;&lt;td&gt;&lt;span style=&quot;font-weight: 400;&quot;&gt;&lt;font face=&quot;Helvetica&quot;&gt;VARCHAR(100)&lt;/font&gt;&lt;/span&gt;&lt;/td&gt;&lt;td&gt;&lt;font face=&quot;Helvetica&quot;&gt;&lt;br&gt;&lt;/font&gt;&lt;/td&gt;&lt;/tr&gt;&lt;tr&gt;&lt;td&gt;&lt;font face=&quot;Helvetica&quot;&gt;admin_avatar_url&lt;/font&gt;&lt;/td&gt;&lt;td&gt;&lt;span style=&quot;font-weight: 400;&quot;&gt;&lt;font face=&quot;Helvetica&quot;&gt;VARCHAR(200)&lt;/font&gt;&lt;/span&gt;&lt;/td&gt;&lt;td&gt;&lt;font face=&quot;Helvetica&quot;&gt;&lt;br&gt;&lt;/font&gt;&lt;/td&gt;&lt;/tr&gt;&lt;tr&gt;&lt;td&gt;&lt;font face=&quot;Helvetica&quot;&gt;admin_phone&lt;/font&gt;&lt;/td&gt;&lt;td&gt;&lt;span style=&quot;font-weight: 400;&quot;&gt;&lt;font face=&quot;Helvetica&quot;&gt;VARCHAR(20)&lt;/font&gt;&lt;/span&gt;&lt;/td&gt;&lt;td&gt;&lt;font face=&quot;Helvetica&quot;&gt;&lt;br&gt;&lt;/font&gt;&lt;/td&gt;&lt;/tr&gt;&lt;tr&gt;&lt;td&gt;&lt;font face=&quot;Helvetica&quot;&gt;admin_email&lt;/font&gt;&lt;/td&gt;&lt;td&gt;&lt;span style=&quot;font-weight: 400;&quot;&gt;&lt;font face=&quot;Helvetica&quot;&gt;VARCHAR(100)&lt;/font&gt;&lt;/span&gt;&lt;/td&gt;&lt;td&gt;&lt;font face=&quot;Helvetica&quot;&gt;&lt;br&gt;&lt;/font&gt;&lt;/td&gt;&lt;/tr&gt;&lt;/tbody&gt;&lt;/table&gt;&lt;/div&gt;" style="verticalAlign=top;align=left;overflow=fill;html=1;rounded=0;shadow=0;comic=0;labelBackgroundColor=#33FF99;strokeWidth=1;fontFamily=Verdana;fontSize=12;labelBorderColor=#009900;whiteSpace=wrap;strokeColor=#00994D;fillColor=#33FF99;" parent="1" vertex="1">
          <mxGeometry x="590" y="-3380" width="340" height="200" as="geometry" />
        </mxCell>
        <mxCell id="sLQFvHyLrfU1iwt5H_em-1" value="&lt;font&gt;&lt;b&gt;&lt;br&gt;&lt;u&gt;Список банков&lt;/u&gt;&lt;br&gt;&lt;br&gt;&lt;/b&gt;&lt;table style=&quot;font-size: 12px; text-align: left; font-weight: 700; border: 1px solid rgb(0, 0, 0); border-collapse: collapse;&quot; border=&quot;1&quot;&gt;&lt;tbody&gt;&lt;tr&gt;&lt;td&gt;&lt;font face=&quot;Helvetica&quot;&gt;bank_list_id&lt;/font&gt;&lt;/td&gt;&lt;td&gt;&lt;span style=&quot;font-weight: 400;&quot;&gt;&lt;font face=&quot;Helvetica&quot;&gt;UUID&lt;/font&gt;&lt;/span&gt;&lt;/td&gt;&lt;/tr&gt;&lt;tr&gt;&lt;td&gt;&lt;font face=&quot;Helvetica&quot;&gt;bank_name&lt;/font&gt;&lt;/td&gt;&lt;td&gt;&lt;span style=&quot;font-weight: 400;&quot;&gt;&lt;font face=&quot;Helvetica&quot;&gt;VARCHAR (100)&lt;/font&gt;&lt;/span&gt;&lt;/td&gt;&lt;/tr&gt;&lt;tr&gt;&lt;td&gt;&lt;font face=&quot;Helvetica&quot;&gt;legal_address&lt;/font&gt;&lt;/td&gt;&lt;td&gt;&lt;span style=&quot;font-weight: 400;&quot;&gt;&lt;font face=&quot;Helvetica&quot;&gt;VARCHAR (255)&lt;/font&gt;&lt;/span&gt;&lt;/td&gt;&lt;/tr&gt;&lt;tr&gt;&lt;td&gt;&lt;font face=&quot;Helvetica&quot;&gt;inn&lt;/font&gt;&lt;/td&gt;&lt;td&gt;&lt;span style=&quot;font-weight: 400;&quot;&gt;&lt;font face=&quot;Helvetica&quot;&gt;CHAR (10)&lt;/font&gt;&lt;/span&gt;&lt;/td&gt;&lt;/tr&gt;&lt;tr&gt;&lt;td&gt;&lt;font face=&quot;Helvetica&quot;&gt;bic&lt;/font&gt;&lt;/td&gt;&lt;td&gt;&lt;span style=&quot;font-weight: 400;&quot;&gt;&lt;font face=&quot;Helvetica&quot;&gt;CHAR (9)&lt;/font&gt;&lt;/span&gt;&lt;/td&gt;&lt;/tr&gt;&lt;tr&gt;&lt;td&gt;&lt;font face=&quot;Helvetica&quot;&gt;correspondent_account&lt;/font&gt;&lt;/td&gt;&lt;td&gt;&lt;span style=&quot;font-weight: 400;&quot;&gt;&lt;font face=&quot;Helvetica&quot;&gt;CHAR (20)&lt;/font&gt;&lt;/span&gt;&lt;/td&gt;&lt;/tr&gt;&lt;/tbody&gt;&lt;/table&gt;&lt;/font&gt;" style="verticalAlign=middle;align=center;overflow=fill;html=1;rounded=0;shadow=0;comic=0;labelBackgroundColor=none;strokeWidth=1;fontFamily=Verdana;fontSize=16;labelBorderColor=#0000FF;whiteSpace=wrap;fillColor=#FFB366;strokeColor=#994C00;" parent="1" vertex="1">
          <mxGeometry x="5580" y="-7606" width="380" height="186" as="geometry" />
        </mxCell>
        <mxCell id="sLQFvHyLrfU1iwt5H_em-2" value="&lt;font style=&quot;font-size: 16px;&quot;&gt;&lt;b&gt;&lt;br&gt;&lt;u&gt;Статус записи&lt;/u&gt;&lt;br&gt;&lt;br&gt;&lt;/b&gt;&lt;table style=&quot;font-size: 12px; text-align: left; font-weight: 700; border: 1px solid rgb(0, 0, 0); border-collapse: collapse;&quot; border=&quot;1&quot;&gt;&lt;tbody&gt;&lt;tr&gt;&lt;td&gt;&lt;font face=&quot;Helvetica&quot;&gt;status_id&amp;nbsp;&lt;/font&gt;&lt;/td&gt;&lt;td&gt;&lt;span style=&quot;font-weight: 400;&quot;&gt;&lt;font face=&quot;Helvetica&quot;&gt;UUID&lt;/font&gt;&lt;/span&gt;&lt;/td&gt;&lt;/tr&gt;&lt;tr&gt;&lt;td&gt;&lt;font face=&quot;Helvetica&quot;&gt;status&amp;nbsp;&lt;/font&gt;&lt;/td&gt;&lt;td&gt;&lt;span style=&quot;font-weight: 400;&quot;&gt;&lt;font face=&quot;Helvetica&quot;&gt;VARCHAR(50)&lt;/font&gt;&lt;/span&gt;&lt;/td&gt;&lt;/tr&gt;&lt;/tbody&gt;&lt;/table&gt;&lt;/font&gt;" style="verticalAlign=middle;align=center;overflow=fill;html=1;rounded=0;shadow=0;comic=0;labelBackgroundColor=none;strokeWidth=1;fontFamily=Verdana;fontSize=12;labelBorderColor=#0000FF;whiteSpace=wrap;fillColor=#FFB366;strokeColor=#994C00;" parent="1" vertex="1">
          <mxGeometry x="2470" y="-7955" width="380" height="135" as="geometry" />
        </mxCell>
        <mxCell id="sLQFvHyLrfU1iwt5H_em-3" value="&lt;font style=&quot;font-size: 16px;&quot;&gt;&lt;b&gt;&lt;br&gt;&lt;u&gt;Канал связи&lt;/u&gt;&lt;br&gt;&lt;br&gt;&lt;/b&gt;&lt;table style=&quot;font-size: 12px; text-align: left; font-weight: 700; border: 1px solid rgb(0, 0, 0); border-collapse: collapse;&quot; border=&quot;1&quot;&gt;&lt;tbody&gt;&lt;tr&gt;&lt;td&gt;&lt;font face=&quot;Helvetica&quot;&gt;communication_channel_id&lt;/font&gt;&lt;/td&gt;&lt;td&gt;&lt;span style=&quot;font-weight: 400;&quot;&gt;&lt;font face=&quot;Helvetica&quot;&gt;UUID&lt;/font&gt;&lt;/span&gt;&lt;/td&gt;&lt;/tr&gt;&lt;tr&gt;&lt;td&gt;&lt;font face=&quot;Helvetica&quot;&gt;text&lt;/font&gt;&lt;/td&gt;&lt;td&gt;&lt;span style=&quot;font-weight: 400;&quot;&gt;&lt;font face=&quot;Helvetica&quot;&gt;VARCHAR(1000)&lt;/font&gt;&lt;/span&gt;&lt;/td&gt;&lt;/tr&gt;&lt;tr&gt;&lt;td&gt;&lt;font face=&quot;Helvetica&quot;&gt;account_login&lt;/font&gt;&lt;/td&gt;&lt;td&gt;&lt;span style=&quot;font-weight: 400;&quot;&gt;&lt;font face=&quot;Helvetica&quot;&gt;VARCHAR(50)&lt;/font&gt;&lt;/span&gt;&lt;/td&gt;&lt;/tr&gt;&lt;tr&gt;&lt;td&gt;&lt;font face=&quot;Helvetica&quot;&gt;account_password_hash&lt;/font&gt;&lt;/td&gt;&lt;td&gt;&lt;span style=&quot;font-weight: 400;&quot;&gt;&lt;font face=&quot;Helvetica&quot;&gt;VARCHAR(64)&lt;/font&gt;&lt;/span&gt;&lt;/td&gt;&lt;/tr&gt;&lt;tr&gt;&lt;td&gt;&lt;font face=&quot;Helvetica&quot;&gt;length_limit&lt;/font&gt;&lt;/td&gt;&lt;td&gt;&lt;span style=&quot;font-weight: 400;&quot;&gt;&lt;font face=&quot;Helvetica&quot;&gt;INT&lt;/font&gt;&lt;/span&gt;&lt;/td&gt;&lt;/tr&gt;&lt;/tbody&gt;&lt;/table&gt;&lt;/font&gt;" style="verticalAlign=middle;align=center;overflow=fill;html=1;rounded=0;shadow=0;comic=0;labelBackgroundColor=none;strokeWidth=1;fontFamily=Verdana;fontSize=12;labelBorderColor=#0000FF;whiteSpace=wrap;fillColor=#FFB366;strokeColor=#994C00;" parent="1" vertex="1">
          <mxGeometry x="-1944.25" y="-7493.56" width="380" height="183.56" as="geometry" />
        </mxCell>
        <mxCell id="sLQFvHyLrfU1iwt5H_em-4" value="&lt;font style=&quot;font-size: 16px;&quot;&gt;&lt;b&gt;&lt;br&gt;&lt;u&gt;Тип услуги&lt;/u&gt;&lt;br&gt;&lt;br&gt;&lt;/b&gt;&lt;table style=&quot;font-size: 12px; text-align: left; font-weight: 700; border: 1px solid rgb(0, 0, 0); border-collapse: collapse;&quot; border=&quot;1&quot;&gt;&lt;tbody&gt;&lt;tr&gt;&lt;td&gt;&lt;font face=&quot;Helvetica&quot;&gt;service_id&lt;/font&gt;&lt;/td&gt;&lt;td&gt;&lt;span style=&quot;font-weight: 400;&quot;&gt;&lt;font face=&quot;Helvetica&quot;&gt;UUID&lt;/font&gt;&lt;/span&gt;&lt;/td&gt;&lt;/tr&gt;&lt;tr&gt;&lt;td&gt;&lt;font face=&quot;Helvetica&quot;&gt;service_description&lt;/font&gt;&lt;/td&gt;&lt;td&gt;&lt;span style=&quot;font-weight: 400;&quot;&gt;&lt;font face=&quot;Helvetica&quot;&gt;VARCHAR(1000)&lt;/font&gt;&lt;/span&gt;&lt;/td&gt;&lt;/tr&gt;&lt;tr&gt;&lt;td&gt;&lt;font face=&quot;Helvetica&quot;&gt;service_cost&lt;/font&gt;&lt;/td&gt;&lt;td&gt;&lt;span style=&quot;font-weight: 400;&quot;&gt;&lt;font face=&quot;Helvetica&quot;&gt;DECIMAL(10, 2)&lt;/font&gt;&lt;/span&gt;&lt;/td&gt;&lt;/tr&gt;&lt;tr&gt;&lt;td&gt;&lt;font face=&quot;Helvetica&quot;&gt;currency&amp;nbsp;&lt;/font&gt;&lt;/td&gt;&lt;td&gt;&lt;span style=&quot;font-weight: 400;&quot;&gt;&lt;font face=&quot;Helvetica&quot;&gt;VARCHAR(3)&lt;/font&gt;&lt;/span&gt;&lt;/td&gt;&lt;/tr&gt;&lt;tr&gt;&lt;td&gt;&lt;font face=&quot;Helvetica&quot;&gt;service_minutes&lt;/font&gt;&lt;/td&gt;&lt;td&gt;&lt;span style=&quot;font-weight: 400;&quot;&gt;&lt;font face=&quot;Helvetica&quot;&gt;INT&lt;/font&gt;&lt;/span&gt;&lt;/td&gt;&lt;/tr&gt;&lt;/tbody&gt;&lt;/table&gt;&lt;/font&gt;" style="verticalAlign=middle;align=center;overflow=fill;html=1;rounded=0;shadow=0;comic=0;labelBackgroundColor=none;strokeWidth=1;fontFamily=Verdana;fontSize=12;labelBorderColor=#0000FF;whiteSpace=wrap;fillColor=#FFB366;strokeColor=#994C00;" parent="1" vertex="1">
          <mxGeometry x="-1350" y="-4325" width="380" height="155" as="geometry" />
        </mxCell>
        <mxCell id="sLQFvHyLrfU1iwt5H_em-5" value="" style="verticalAlign=middle;align=center;overflow=fill;html=1;rounded=0;shadow=0;comic=0;labelBackgroundColor=none;strokeWidth=1;fontFamily=Verdana;fontSize=12;labelBorderColor=#0000FF;whiteSpace=wrap;fillColor=#66B2FF;strokeColor=#000099;" parent="1" vertex="1">
          <mxGeometry x="4380" y="-6580" width="510" height="261.75" as="geometry" />
        </mxCell>
        <mxCell id="sLQFvHyLrfU1iwt5H_em-6" value="&lt;span style=&quot;text-wrap-mode: nowrap;&quot;&gt;&lt;font style=&quot;font-size: 16px;&quot; face=&quot;Verdana&quot;&gt;&lt;u style=&quot;&quot;&gt;&lt;b&gt;Оплата&lt;/b&gt;&lt;/u&gt;&lt;br&gt;&lt;br&gt;&lt;/font&gt;&lt;/span&gt;&lt;table style=&quot;font-family: Verdana; text-align: left; font-weight: 700; border: 1px solid rgb(0, 0, 0); border-collapse: collapse;&quot; border=&quot;1&quot;&gt;&lt;tbody&gt;&lt;tr&gt;&lt;td&gt;&lt;font face=&quot;Helvetica&quot;&gt;payment_id&lt;/font&gt;&lt;/td&gt;&lt;td&gt;&lt;span style=&quot;font-weight: 400;&quot;&gt;&lt;font face=&quot;Helvetica&quot;&gt;UUID&lt;/font&gt;&lt;/span&gt;&lt;/td&gt;&lt;/tr&gt;&lt;tr&gt;&lt;td&gt;&lt;font face=&quot;Helvetica&quot;&gt;payment_flag&lt;/font&gt;&lt;/td&gt;&lt;td&gt;&lt;span style=&quot;font-weight: 400;&quot;&gt;&lt;font face=&quot;Helvetica&quot;&gt;BOOLEAN&lt;/font&gt;&lt;/span&gt;&lt;/td&gt;&lt;/tr&gt;&lt;tr&gt;&lt;td&gt;&lt;font face=&quot;Helvetica&quot;&gt;receipt_flag&lt;/font&gt;&lt;/td&gt;&lt;td&gt;&lt;span style=&quot;font-weight: 400;&quot;&gt;&lt;font face=&quot;Helvetica&quot;&gt;BOOLEAN&lt;/font&gt;&lt;/span&gt;&lt;/td&gt;&lt;/tr&gt;&lt;/tbody&gt;&lt;/table&gt;" style="rhombus;whiteSpace=wrap;html=1;fillColor=#66B2FF;strokeColor=#000099;labelBackgroundColor=none;" parent="1" vertex="1">
          <mxGeometry x="4380" y="-6580" width="510" height="261.75" as="geometry" />
        </mxCell>
        <mxCell id="sLQFvHyLrfU1iwt5H_em-7" value="" style="verticalAlign=middle;align=center;overflow=fill;html=1;rounded=0;shadow=0;comic=0;labelBackgroundColor=none;strokeWidth=1;fontFamily=Verdana;fontSize=12;labelBorderColor=#0000FF;whiteSpace=wrap;fillColor=#66B2FF;strokeColor=#000099;" parent="1" vertex="1">
          <mxGeometry x="-610" y="-7590" width="385.66" height="200" as="geometry" />
        </mxCell>
        <mxCell id="sLQFvHyLrfU1iwt5H_em-9" value="" style="verticalAlign=middle;align=center;overflow=fill;html=1;rounded=0;shadow=0;comic=0;labelBackgroundColor=none;strokeWidth=1;fontFamily=Verdana;fontSize=12;labelBorderColor=#0000FF;whiteSpace=wrap;fillColor=#66B2FF;strokeColor=#000099;" parent="1" vertex="1">
          <mxGeometry x="4120" y="-4620" width="500" height="260" as="geometry" />
        </mxCell>
        <mxCell id="sLQFvHyLrfU1iwt5H_em-11" value="&lt;b&gt;&lt;font style=&quot;font-size: 16px;&quot; face=&quot;Verdana&quot;&gt;&lt;u&gt;Отзыв&lt;/u&gt;&lt;br&gt;&lt;br&gt;&lt;/font&gt;&lt;/b&gt;&lt;table style=&quot;font-family: Verdana; font-size: 12px; text-align: left; font-weight: 700; border: 1px solid rgb(0, 0, 0); border-collapse: collapse;&quot; border=&quot;1&quot;&gt;&lt;tbody&gt;&lt;tr&gt;&lt;td&gt;&lt;font face=&quot;Helvetica&quot;&gt;review_id&lt;/font&gt;&lt;/td&gt;&lt;td&gt;&lt;span style=&quot;font-weight: 400;&quot;&gt;&lt;font face=&quot;Helvetica&quot;&gt;UUID&lt;/font&gt;&lt;/span&gt;&lt;/td&gt;&lt;/tr&gt;&lt;tr&gt;&lt;td&gt;&lt;font face=&quot;Helvetica&quot;&gt;review_date&lt;/font&gt;&lt;/td&gt;&lt;td&gt;&lt;span style=&quot;font-weight: 400;&quot;&gt;&lt;font face=&quot;Helvetica&quot;&gt;DATE&lt;/font&gt;&lt;/span&gt;&lt;/td&gt;&lt;/tr&gt;&lt;tr&gt;&lt;td&gt;&lt;font face=&quot;Helvetica&quot;&gt;review_time&lt;/font&gt;&lt;/td&gt;&lt;td&gt;&lt;span style=&quot;font-weight: 400;&quot;&gt;&lt;font face=&quot;Helvetica&quot;&gt;TIME&lt;/font&gt;&lt;/span&gt;&lt;/td&gt;&lt;/tr&gt;&lt;/tbody&gt;&lt;/table&gt;" style="ellipse;whiteSpace=wrap;html=1;fillColor=#66B2FF;strokeColor=#000099;labelBackgroundColor=none;fontSize=19;" parent="1" vertex="1">
          <mxGeometry x="4120" y="-4620" width="500" height="260" as="geometry" />
        </mxCell>
        <mxCell id="sLQFvHyLrfU1iwt5H_em-13" value="&lt;b&gt;&lt;u&gt;Уведомление&lt;br&gt;&lt;/u&gt;&lt;br&gt;&lt;/b&gt;&lt;table style=&quot;font-family: Verdana; font-size: 12px; text-align: left; font-weight: 700; border: 1px solid rgb(0, 0, 0); border-collapse: collapse;&quot; border=&quot;1&quot;&gt;&lt;tbody&gt;&lt;tr&gt;&lt;td&gt;&lt;font face=&quot;Helvetica&quot;&gt;notification_id&lt;/font&gt;&lt;/td&gt;&lt;td&gt;&lt;span style=&quot;font-weight: 400;&quot;&gt;&lt;font face=&quot;Helvetica&quot;&gt;UUID&lt;/font&gt;&lt;/span&gt;&lt;/td&gt;&lt;/tr&gt;&lt;tr&gt;&lt;td&gt;&lt;font face=&quot;Helvetica&quot;&gt;send_date&lt;/font&gt;&lt;/td&gt;&lt;td&gt;&lt;span style=&quot;font-weight: 400;&quot;&gt;&lt;font face=&quot;Helvetica&quot;&gt;DATE&lt;/font&gt;&lt;/span&gt;&lt;/td&gt;&lt;/tr&gt;&lt;tr&gt;&lt;td&gt;&lt;font face=&quot;Helvetica&quot;&gt;send_time&lt;/font&gt;&lt;/td&gt;&lt;td&gt;&lt;span style=&quot;font-weight: 400;&quot;&gt;&lt;font face=&quot;Helvetica&quot;&gt;TIME&lt;/font&gt;&lt;/span&gt;&lt;/td&gt;&lt;/tr&gt;&lt;tr&gt;&lt;td&gt;&lt;font face=&quot;Helvetica&quot;&gt;notification_flag&lt;/font&gt;&lt;/td&gt;&lt;td&gt;&lt;span style=&quot;font-weight: 400;&quot;&gt;&lt;font face=&quot;Helvetica&quot;&gt;BOOLEAN&lt;/font&gt;&lt;/span&gt;&lt;/td&gt;&lt;/tr&gt;&lt;/tbody&gt;&lt;/table&gt;" style="ellipse;whiteSpace=wrap;html=1;fillColor=#66B2FF;strokeColor=#000099;labelBackgroundColor=none;fontSize=19;" parent="1" vertex="1">
          <mxGeometry x="-610" y="-7590" width="385.66" height="200" as="geometry" />
        </mxCell>
        <mxCell id="sLQFvHyLrfU1iwt5H_em-14" value="&lt;font style=&quot;&quot;&gt;&lt;br&gt;&lt;span style=&quot;font-weight: bold; font-size: 16px;&quot;&gt;&lt;u&gt;Расписание&lt;/u&gt;&lt;br&gt;&lt;br&gt;&lt;/span&gt;&lt;table style=&quot;text-align: left; font-weight: 700; border: 1px solid rgb(0, 0, 0); border-collapse: collapse;&quot; border=&quot;1&quot;&gt;&lt;tbody&gt;&lt;tr&gt;&lt;td&gt;&lt;font face=&quot;Helvetica&quot;&gt;schedule_id&lt;/font&gt;&lt;/td&gt;&lt;td&gt;&lt;span style=&quot;font-weight: 400;&quot;&gt;&lt;font face=&quot;Helvetica&quot;&gt;UUID&lt;/font&gt;&lt;/span&gt;&lt;/td&gt;&lt;/tr&gt;&lt;tr&gt;&lt;td&gt;&lt;font face=&quot;Helvetica&quot;&gt;slot_status&lt;/font&gt;&lt;/td&gt;&lt;td&gt;&lt;span style=&quot;font-weight: 400;&quot;&gt;&lt;font face=&quot;Helvetica&quot;&gt;BOOLEAN&lt;/font&gt;&lt;/span&gt;&lt;/td&gt;&lt;/tr&gt;&lt;tr&gt;&lt;td&gt;&lt;font face=&quot;Helvetica&quot;&gt;slot_date&lt;/font&gt;&lt;/td&gt;&lt;td&gt;&lt;span style=&quot;font-weight: 400;&quot;&gt;&lt;font face=&quot;Helvetica&quot;&gt;DATE&lt;/font&gt;&lt;/span&gt;&lt;/td&gt;&lt;/tr&gt;&lt;tr&gt;&lt;td&gt;&lt;font face=&quot;Helvetica&quot;&gt;slot_time&lt;/font&gt;&lt;/td&gt;&lt;td&gt;&lt;span style=&quot;font-weight: 400;&quot;&gt;&lt;font face=&quot;Helvetica&quot;&gt;TIME&lt;/font&gt;&lt;/span&gt;&lt;/td&gt;&lt;/tr&gt;&lt;/tbody&gt;&lt;/table&gt;&lt;/font&gt;" style="verticalAlign=middle;align=center;overflow=fill;html=1;rounded=0;shadow=0;comic=0;labelBackgroundColor=none;strokeWidth=1;fontFamily=Verdana;fontSize=12;labelBorderColor=#0000FF;whiteSpace=wrap;fillColor=#66B2FF;strokeColor=#000099;" parent="1" vertex="1">
          <mxGeometry x="-410" y="-4390" width="380" height="130" as="geometry" />
        </mxCell>
        <mxCell id="sLQFvHyLrfU1iwt5H_em-15" value="&lt;div style=&quot;box-sizing: border-box; width: 100%; background-image: initial; background-position: initial; background-size: initial; background-repeat: initial; background-attachment: initial; background-origin: initial; background-clip: initial; padding: 2px;&quot;&gt;&lt;div style=&quot;text-align: center;&quot;&gt;&lt;b style=&quot;font-size: 16px;&quot;&gt;&lt;br&gt;Агрегирующая сущность&lt;/b&gt;&lt;/div&gt;&lt;/div&gt;" style="verticalAlign=top;align=left;overflow=fill;html=1;rounded=0;shadow=0;comic=0;labelBackgroundColor=none;strokeWidth=1;fontFamily=Verdana;fontSize=12;labelBorderColor=#0000FF;whiteSpace=wrap;fillColor=#FF9999;strokeColor=#CC0000;" parent="1" vertex="1">
          <mxGeometry x="4360" y="-9060" width="375" height="90" as="geometry" />
        </mxCell>
        <mxCell id="sLQFvHyLrfU1iwt5H_em-16" style="rounded=0;orthogonalLoop=1;jettySize=auto;html=1;entryX=0;entryY=0.5;entryDx=0;entryDy=0;exitX=1;exitY=0.5;exitDx=0;exitDy=0;edgeStyle=orthogonalEdgeStyle;" parent="1" source="-1b3vE4YZ-zce0Uezh61-21" target="sLQFvHyLrfU1iwt5H_em-15" edge="1">
          <mxGeometry relative="1" as="geometry">
            <mxPoint x="4210" y="-9370" as="sourcePoint" />
            <mxPoint x="4370" y="-9145" as="targetPoint" />
            <Array as="points">
              <mxPoint x="4280" y="-9365" />
              <mxPoint x="4280" y="-9015" />
            </Array>
          </mxGeometry>
        </mxCell>
        <mxCell id="sLQFvHyLrfU1iwt5H_em-17" value="&lt;div style=&quot;box-sizing: border-box; width: 100%; background-image: initial; background-position: initial; background-size: initial; background-repeat: initial; background-attachment: initial; background-origin: initial; background-clip: initial; padding: 2px;&quot;&gt;&lt;div style=&quot;text-align: center;&quot;&gt;&lt;b style=&quot;font-size: 16px;&quot;&gt;&lt;br&gt;&lt;u&gt;Онлайн чек&lt;br&gt;&lt;/u&gt;&lt;br&gt;&lt;/b&gt;&lt;table style=&quot;text-align: left; font-weight: 700; border: 1px solid rgb(0, 0, 0); border-collapse: collapse;&quot; border=&quot;1&quot;&gt;&lt;tbody&gt;&lt;tr&gt;&lt;td&gt;&lt;font face=&quot;Helvetica&quot;&gt;online_check_id&lt;/font&gt;&lt;/td&gt;&lt;td&gt;&lt;span style=&quot;font-weight: 400;&quot;&gt;&lt;font face=&quot;Helvetica&quot;&gt;UUID&lt;/font&gt;&lt;/span&gt;&lt;/td&gt;&lt;/tr&gt;&lt;tr&gt;&lt;td&gt;&lt;font face=&quot;Helvetica&quot;&gt;template_name&lt;/font&gt;&lt;/td&gt;&lt;td&gt;&lt;span style=&quot;font-weight: 400;&quot;&gt;&lt;font face=&quot;Helvetica&quot;&gt;VARCHAR (50)&lt;/font&gt;&lt;/span&gt;&lt;/td&gt;&lt;/tr&gt;&lt;tr&gt;&lt;td&gt;&lt;font face=&quot;Helvetica&quot;&gt;html_template&lt;/font&gt;&lt;/td&gt;&lt;td&gt;&lt;span style=&quot;font-weight: 400;&quot;&gt;&lt;font face=&quot;Helvetica&quot;&gt;TEXT&lt;/font&gt;&lt;/span&gt;&lt;/td&gt;&lt;/tr&gt;&lt;tr&gt;&lt;td&gt;&lt;font face=&quot;Helvetica&quot;&gt;styles&lt;/font&gt;&lt;/td&gt;&lt;td&gt;&lt;span style=&quot;font-weight: 400;&quot;&gt;&lt;font face=&quot;Helvetica&quot;&gt;TEXT&lt;/font&gt;&lt;/span&gt;&lt;/td&gt;&lt;/tr&gt;&lt;tr&gt;&lt;td&gt;&lt;font face=&quot;Helvetica&quot;&gt;signature&lt;/font&gt;&lt;/td&gt;&lt;td&gt;&lt;span style=&quot;font-weight: 400;&quot;&gt;&lt;font face=&quot;Helvetica&quot;&gt;VARCHAR (100)&lt;/font&gt;&lt;/span&gt;&lt;/td&gt;&lt;/tr&gt;&lt;/tbody&gt;&lt;/table&gt;&lt;/div&gt;&lt;/div&gt;" style="verticalAlign=top;align=left;overflow=fill;html=1;rounded=0;shadow=0;comic=0;labelBackgroundColor=none;strokeWidth=1;fontFamily=Verdana;fontSize=12;labelBorderColor=#0000FF;whiteSpace=wrap;fillColor=#FF9999;strokeColor=#CC0000;" parent="1" vertex="1">
          <mxGeometry x="6660" y="-6027.69" width="375" height="177.69" as="geometry" />
        </mxCell>
        <mxCell id="sLQFvHyLrfU1iwt5H_em-18" value="&lt;div style=&quot;box-sizing: border-box; width: 100%; background-image: initial; background-position: initial; background-size: initial; background-repeat: initial; background-attachment: initial; background-origin: initial; background-clip: initial; padding: 2px;&quot;&gt;&lt;div style=&quot;text-align: center;&quot;&gt;&lt;b style=&quot;font-size: 16px;&quot;&gt;&lt;br&gt;&lt;u&gt;Сеанс&lt;/u&gt;&lt;br&gt;&lt;br&gt;&lt;/b&gt;&lt;table style=&quot;text-align: left; font-weight: 700; border: 1px solid rgb(0, 0, 0); border-collapse: collapse;&quot; border=&quot;1&quot;&gt;&lt;tbody&gt;&lt;tr&gt;&lt;td&gt;&lt;font face=&quot;Helvetica&quot;&gt;session_id&lt;/font&gt;&lt;/td&gt;&lt;td&gt;&lt;span style=&quot;font-weight: 400;&quot;&gt;&lt;font face=&quot;Helvetica&quot;&gt;UUID&lt;/font&gt;&lt;/span&gt;&lt;/td&gt;&lt;/tr&gt;&lt;tr&gt;&lt;td&gt;&lt;font face=&quot;Helvetica&quot;&gt;template_name&lt;/font&gt;&lt;/td&gt;&lt;td&gt;&lt;span style=&quot;font-weight: 400;&quot;&gt;&lt;font face=&quot;Helvetica&quot;&gt;VARCHAR (50)&lt;/font&gt;&lt;/span&gt;&lt;/td&gt;&lt;/tr&gt;&lt;tr&gt;&lt;td&gt;&lt;font face=&quot;Helvetica&quot;&gt;structure&lt;/font&gt;&lt;/td&gt;&lt;td&gt;&lt;span style=&quot;font-weight: 400;&quot;&gt;&lt;font face=&quot;Helvetica&quot;&gt;JSON&lt;/font&gt;&lt;/span&gt;&lt;/td&gt;&lt;/tr&gt;&lt;/tbody&gt;&lt;/table&gt;&lt;/div&gt;&lt;/div&gt;" style="verticalAlign=top;align=left;overflow=fill;html=1;rounded=0;shadow=0;comic=0;labelBackgroundColor=none;strokeWidth=1;fontFamily=Verdana;fontSize=12;labelBorderColor=#0000FF;whiteSpace=wrap;fillColor=#FF9999;strokeColor=#CC0000;" parent="1" vertex="1">
          <mxGeometry x="5045" y="-3387.5" width="375" height="165" as="geometry" />
        </mxCell>
        <mxCell id="sLQFvHyLrfU1iwt5H_em-19" value="&lt;div style=&quot;box-sizing: border-box; width: 100%; background-image: initial; background-position: initial; background-size: initial; background-repeat: initial; background-attachment: initial; background-origin: initial; background-clip: initial; padding: 2px;&quot;&gt;&lt;div style=&quot;text-align: center;&quot;&gt;&lt;b style=&quot;font-size: 16px;&quot;&gt;&lt;br&gt;&lt;u&gt;Журнал оплат&lt;/u&gt;&lt;br&gt;&lt;br&gt;&lt;/b&gt;&lt;table style=&quot;text-align: left; font-weight: 700; border: 1px solid rgb(0, 0, 0); border-collapse: collapse;&quot; border=&quot;1&quot;&gt;&lt;tbody&gt;&lt;tr&gt;&lt;td&gt;&lt;font face=&quot;Helvetica&quot;&gt;online_payment_id&lt;/font&gt;&lt;/td&gt;&lt;td&gt;&lt;span style=&quot;font-weight: normal;&quot;&gt;&lt;font face=&quot;Helvetica&quot;&gt;UUID&lt;/font&gt;&lt;/span&gt;&lt;/td&gt;&lt;/tr&gt;&lt;/tbody&gt;&lt;/table&gt;&lt;/div&gt;&lt;/div&gt;" style="verticalAlign=top;align=left;overflow=fill;html=1;rounded=0;shadow=0;comic=0;labelBackgroundColor=none;strokeWidth=1;fontFamily=Verdana;fontSize=12;labelBorderColor=#0000FF;whiteSpace=wrap;fillColor=#0AD080;strokeColor=#006600;" parent="1" vertex="1">
          <mxGeometry x="5370" y="-7141" width="375" height="91" as="geometry" />
        </mxCell>
        <mxCell id="sLQFvHyLrfU1iwt5H_em-20" value="&lt;div style=&quot;box-sizing: border-box; width: 100%; background-image: initial; background-position: initial; background-size: initial; background-repeat: initial; background-attachment: initial; background-origin: initial; background-clip: initial; padding: 2px;&quot;&gt;&lt;div style=&quot;text-align: center;&quot;&gt;&lt;b style=&quot;font-size: 16px;&quot;&gt;&lt;br&gt;&lt;u&gt;История отзывов&lt;br&gt;&lt;br&gt;&lt;/u&gt;&lt;/b&gt;&lt;table style=&quot;text-align: left; font-weight: 700; border: 1px solid rgb(0, 0, 0); border-collapse: collapse;&quot; border=&quot;1&quot;&gt;&lt;tbody&gt;&lt;tr&gt;&lt;td&gt;&lt;font face=&quot;Helvetica&quot;&gt;feedback_history_id&lt;/font&gt;&lt;/td&gt;&lt;td&gt;&lt;span style=&quot;font-weight: normal;&quot;&gt;&lt;font face=&quot;Helvetica&quot;&gt;UUID&lt;/font&gt;&lt;/span&gt;&lt;/td&gt;&lt;/tr&gt;&lt;/tbody&gt;&lt;/table&gt;&lt;/div&gt;&lt;/div&gt;" style="verticalAlign=top;align=left;overflow=fill;html=1;rounded=0;shadow=0;comic=0;labelBackgroundColor=none;strokeWidth=1;fontFamily=Verdana;fontSize=12;labelBorderColor=#0000FF;whiteSpace=wrap;fillColor=#0AD080;strokeColor=#006600;" parent="1" vertex="1">
          <mxGeometry x="4645" y="-4200" width="375" height="90" as="geometry" />
        </mxCell>
        <mxCell id="sLQFvHyLrfU1iwt5H_em-21" value="&lt;div style=&quot;box-sizing: border-box; width: 100%; background-image: initial; background-position: initial; background-size: initial; background-repeat: initial; background-attachment: initial; background-origin: initial; background-clip: initial; padding: 2px;&quot;&gt;&lt;div style=&quot;text-align: center;&quot;&gt;&lt;b style=&quot;font-size: 16px;&quot;&gt;&lt;br&gt;&lt;u&gt;Журнал уведомлений&lt;/u&gt;&lt;br&gt;&lt;br&gt;&lt;/b&gt;&lt;table style=&quot;text-align: left; font-weight: 700; border: 1px solid rgb(0, 0, 0); border-collapse: collapse;&quot; border=&quot;1&quot;&gt;&lt;tbody&gt;&lt;tr&gt;&lt;td&gt;&lt;font face=&quot;Helvetica&quot;&gt;notification_journal_id&lt;/font&gt;&lt;/td&gt;&lt;td&gt;&lt;span style=&quot;font-weight: normal;&quot;&gt;&lt;font face=&quot;Helvetica&quot;&gt;UUID&lt;/font&gt;&lt;/span&gt;&lt;/td&gt;&lt;/tr&gt;&lt;/tbody&gt;&lt;/table&gt;&lt;/div&gt;&lt;/div&gt;" style="verticalAlign=top;align=left;overflow=fill;html=1;rounded=0;shadow=0;comic=0;labelBackgroundColor=none;strokeWidth=1;fontFamily=Verdana;fontSize=12;labelBorderColor=#0000FF;whiteSpace=wrap;fillColor=#0AD080;strokeColor=#006600;" parent="1" vertex="1">
          <mxGeometry x="-604.67" y="-8030" width="375" height="100" as="geometry" />
        </mxCell>
        <mxCell id="sLQFvHyLrfU1iwt5H_em-22" value="&lt;div style=&quot;box-sizing: border-box; width: 100%; background-image: initial; background-position: initial; background-size: initial; background-repeat: initial; background-attachment: initial; background-origin: initial; background-clip: initial; padding: 2px;&quot;&gt;&lt;div style=&quot;text-align: center;&quot;&gt;&lt;b style=&quot;font-size: 16px;&quot;&gt;&lt;br&gt;&lt;u&gt;История статусов записи&lt;br&gt;&lt;/u&gt;&lt;br&gt;&lt;/b&gt;&lt;table style=&quot;text-align: left; font-weight: 700; border: 1px solid rgb(0, 0, 0); border-collapse: collapse;&quot; border=&quot;1&quot;&gt;&lt;tbody&gt;&lt;tr&gt;&lt;td&gt;&lt;font face=&quot;Helvetica&quot;&gt;История статусов записи&lt;/font&gt;&lt;/td&gt;&lt;td&gt;&lt;span style=&quot;font-weight: normal;&quot;&gt;&lt;font face=&quot;Helvetica&quot;&gt;UUID&lt;/font&gt;&lt;/span&gt;&lt;/td&gt;&lt;/tr&gt;&lt;/tbody&gt;&lt;/table&gt;&lt;/div&gt;&lt;/div&gt;" style="verticalAlign=top;align=left;overflow=fill;html=1;rounded=0;shadow=0;comic=0;labelBackgroundColor=none;strokeWidth=1;fontFamily=Verdana;fontSize=12;labelBorderColor=#0000FF;whiteSpace=wrap;fillColor=#0AD080;strokeColor=#006600;" parent="1" vertex="1">
          <mxGeometry x="2840" y="-7180" width="375" height="100" as="geometry" />
        </mxCell>
        <mxCell id="sLQFvHyLrfU1iwt5H_em-23" value="" style="verticalAlign=middle;align=center;overflow=fill;html=1;rounded=0;shadow=0;comic=0;labelBackgroundColor=none;strokeWidth=1;fontFamily=Verdana;fontSize=12;labelBorderColor=#0000FF;whiteSpace=wrap;fillColor=#66B2FF;strokeColor=#000099;" parent="1" vertex="1">
          <mxGeometry x="-590" y="-5380.5" width="579.25" height="430" as="geometry" />
        </mxCell>
        <mxCell id="sLQFvHyLrfU1iwt5H_em-24" value="&lt;span style=&quot;text-wrap-mode: nowrap;&quot;&gt;&lt;b style=&quot;&quot;&gt;&lt;u style=&quot;&quot;&gt;&lt;font face=&quot;Helvetica&quot; style=&quot;font-size: 16px;&quot;&gt;Пользователь-Запись&lt;br&gt;&lt;br&gt;&lt;/font&gt;&lt;/u&gt;&lt;/b&gt;&lt;/span&gt;&lt;table style=&quot;font-family: Verdana; text-align: left; font-weight: 700; border: 1px solid rgb(0, 0, 0); border-collapse: collapse;&quot; border=&quot;1&quot;&gt;&lt;tbody&gt;&lt;tr&gt;&lt;td&gt;&lt;font face=&quot;Helvetica&quot;&gt;user_record_id&lt;/font&gt;&lt;/td&gt;&lt;td&gt;&lt;span style=&quot;font-weight: 400;&quot;&gt;&lt;font face=&quot;Helvetica&quot;&gt;UUID&lt;/font&gt;&lt;/span&gt;&lt;/td&gt;&lt;/tr&gt;&lt;tr&gt;&lt;td&gt;&lt;font face=&quot;Helvetica&quot;&gt;creation_date&lt;/font&gt;&lt;/td&gt;&lt;td&gt;&lt;span style=&quot;font-weight: 400;&quot;&gt;&lt;font face=&quot;Helvetica&quot;&gt;DATE&lt;/font&gt;&lt;/span&gt;&lt;/td&gt;&lt;/tr&gt;&lt;tr&gt;&lt;td&gt;&lt;font face=&quot;Helvetica&quot;&gt;creation_time&lt;/font&gt;&lt;/td&gt;&lt;td&gt;&lt;span style=&quot;font-weight: 400;&quot;&gt;&lt;font face=&quot;Helvetica&quot;&gt;TIME&lt;/font&gt;&lt;/span&gt;&lt;/td&gt;&lt;/tr&gt;&lt;tr&gt;&lt;td&gt;&lt;font face=&quot;Helvetica&quot;&gt;status_text&lt;/font&gt;&lt;/td&gt;&lt;td&gt;&lt;span style=&quot;font-weight: 400;&quot;&gt;&lt;font face=&quot;Helvetica&quot;&gt;VARCHAR(255)&lt;/font&gt;&lt;/span&gt;&lt;/td&gt;&lt;/tr&gt;&lt;tr&gt;&lt;td&gt;&lt;font face=&quot;Helvetica&quot;&gt;payment_amount&lt;/font&gt;&lt;/td&gt;&lt;td&gt;&lt;span style=&quot;font-weight: 400;&quot;&gt;&lt;font face=&quot;Helvetica&quot;&gt;DECIMAL(10, 2)&lt;/font&gt;&lt;/span&gt;&lt;/td&gt;&lt;/tr&gt;&lt;tr&gt;&lt;td&gt;&lt;font face=&quot;Helvetica&quot;&gt;execution_time&lt;/font&gt;&lt;/td&gt;&lt;td&gt;&lt;span style=&quot;font-weight: 400;&quot;&gt;&lt;font face=&quot;Helvetica&quot;&gt;INT&lt;/font&gt;&lt;/span&gt;&lt;/td&gt;&lt;/tr&gt;&lt;tr&gt;&lt;td&gt;&lt;font face=&quot;Helvetica&quot;&gt;service_count&lt;/font&gt;&lt;/td&gt;&lt;td&gt;&lt;span style=&quot;font-weight: 400;&quot;&gt;&lt;font face=&quot;Helvetica&quot;&gt;INT&lt;/font&gt;&lt;/span&gt;&lt;/td&gt;&lt;/tr&gt;&lt;/tbody&gt;&lt;/table&gt;" style="rhombus;whiteSpace=wrap;html=1;fillColor=#66B2FF;strokeColor=#000099;labelBackgroundColor=none;" parent="1" vertex="1">
          <mxGeometry x="-590" y="-5380.5" width="579.25" height="430" as="geometry" />
        </mxCell>
        <mxCell id="sLQFvHyLrfU1iwt5H_em-25" value="" style="verticalAlign=middle;align=center;overflow=fill;html=1;rounded=0;shadow=0;comic=0;labelBackgroundColor=none;strokeWidth=1;fontFamily=Verdana;fontSize=12;labelBorderColor=#0000FF;whiteSpace=wrap;fillColor=#66B2FF;strokeColor=#000099;" parent="1" vertex="1">
          <mxGeometry x="510" y="-5220" width="490" height="340" as="geometry" />
        </mxCell>
        <mxCell id="sLQFvHyLrfU1iwt5H_em-26" value="&lt;span style=&quot;text-wrap-mode: nowrap;&quot;&gt;&lt;b style=&quot;&quot;&gt;&lt;font style=&quot;font-size: 16px;&quot; face=&quot;Verdana&quot;&gt;&lt;u&gt;Мастер-Запись&lt;br&gt;&lt;/u&gt;&lt;br&gt;&lt;/font&gt;&lt;/b&gt;&lt;/span&gt;&lt;table style=&quot;font-family: Verdana; text-align: left; font-weight: 700; border: 1px solid rgb(0, 0, 0); border-collapse: collapse;&quot; border=&quot;1&quot;&gt;&lt;tbody&gt;&lt;tr&gt;&lt;td&gt;&lt;font face=&quot;Helvetica&quot;&gt;master_record_id&lt;/font&gt;&lt;/td&gt;&lt;td&gt;&lt;span style=&quot;font-weight: 400;&quot;&gt;&lt;font face=&quot;Helvetica&quot;&gt;UUID&lt;/font&gt;&lt;/span&gt;&lt;/td&gt;&lt;/tr&gt;&lt;tr&gt;&lt;td&gt;&lt;font face=&quot;Helvetica&quot;&gt;service_start_time&lt;/font&gt;&lt;/td&gt;&lt;td&gt;&lt;span style=&quot;font-weight: 400;&quot;&gt;&lt;font face=&quot;Helvetica&quot;&gt;TIME&lt;/font&gt;&lt;/span&gt;&lt;/td&gt;&lt;/tr&gt;&lt;tr&gt;&lt;td&gt;&lt;font face=&quot;Helvetica&quot;&gt;service_end_date&lt;/font&gt;&lt;/td&gt;&lt;td&gt;&lt;span style=&quot;font-weight: 400;&quot;&gt;&lt;font face=&quot;Helvetica&quot;&gt;DATE&lt;/font&gt;&lt;/span&gt;&lt;/td&gt;&lt;/tr&gt;&lt;tr&gt;&lt;td&gt;&lt;font face=&quot;Helvetica&quot;&gt;service_percent&lt;/font&gt;&lt;/td&gt;&lt;td&gt;&lt;span style=&quot;font-weight: 400;&quot;&gt;&lt;font face=&quot;Helvetica&quot;&gt;DECIMAL(5, 2)&lt;/font&gt;&lt;/span&gt;&lt;/td&gt;&lt;/tr&gt;&lt;tr&gt;&lt;td&gt;&lt;font face=&quot;Helvetica&quot;&gt;start_flag&lt;/font&gt;&lt;/td&gt;&lt;td&gt;&lt;span style=&quot;font-weight: 400;&quot;&gt;&lt;font face=&quot;Helvetica&quot;&gt;BOOLEAN&lt;/font&gt;&lt;/span&gt;&lt;/td&gt;&lt;/tr&gt;&lt;tr&gt;&lt;td&gt;&lt;font face=&quot;Helvetica&quot;&gt;end_flag&lt;/font&gt;&lt;/td&gt;&lt;td&gt;&lt;span style=&quot;font-weight: 400;&quot;&gt;&lt;font face=&quot;Helvetica&quot;&gt;BOOLEAN&lt;/font&gt;&lt;/span&gt;&lt;/td&gt;&lt;/tr&gt;&lt;/tbody&gt;&lt;/table&gt;" style="rhombus;whiteSpace=wrap;html=1;fillColor=#66B2FF;strokeColor=#000099;labelBackgroundColor=none;" parent="1" vertex="1">
          <mxGeometry x="510" y="-5220" width="490" height="340" as="geometry" />
        </mxCell>
        <mxCell id="sLQFvHyLrfU1iwt5H_em-33" value="" style="endArrow=ERone;html=1;rounded=0;startArrow=ERmany;startFill=0;endFill=0;strokeColor=#00994D;strokeWidth=3;exitX=0;exitY=0.5;exitDx=0;exitDy=0;entryX=1;entryY=0.5;entryDx=0;entryDy=0;edgeStyle=orthogonalEdgeStyle;" parent="1" source="sLQFvHyLrfU1iwt5H_em-24" target="-1b3vE4YZ-zce0Uezh61-26" edge="1">
          <mxGeometry relative="1" as="geometry">
            <mxPoint x="-815.75" y="-5390" as="sourcePoint" />
            <mxPoint x="-480" y="-5122.75" as="targetPoint" />
          </mxGeometry>
        </mxCell>
        <mxCell id="sLQFvHyLrfU1iwt5H_em-35" value="" style="verticalAlign=middle;align=center;overflow=fill;html=1;rounded=0;shadow=0;comic=0;labelBackgroundColor=none;strokeWidth=1;fontFamily=Verdana;fontSize=12;labelBorderColor=#0000FF;whiteSpace=wrap;fillColor=#66B2FF;strokeColor=#000099;" parent="1" vertex="1">
          <mxGeometry x="-410" y="-3860" width="380" height="195" as="geometry" />
        </mxCell>
        <mxCell id="sLQFvHyLrfU1iwt5H_em-36" value="&lt;span style=&quot;text-wrap-mode: nowrap;&quot;&gt;&lt;font style=&quot;font-size: 16px;&quot; face=&quot;Verdana&quot;&gt;&lt;u style=&quot;&quot;&gt;&lt;b&gt;Мастер-услуги&lt;/b&gt;&lt;/u&gt;&lt;br&gt;&lt;br&gt;&lt;/font&gt;&lt;/span&gt;&lt;table style=&quot;font-family: Verdana; text-align: left; font-weight: 700; border: 1px solid rgb(0, 0, 0); border-collapse: collapse;&quot; border=&quot;1&quot;&gt;&lt;tbody&gt;&lt;tr&gt;&lt;td&gt;&lt;font face=&quot;Helvetica&quot;&gt;master_service_id&lt;/font&gt;&lt;/td&gt;&lt;td&gt;&lt;span style=&quot;font-weight: 400;&quot;&gt;&lt;font face=&quot;Helvetica&quot;&gt;UUID&lt;/font&gt;&lt;/span&gt;&lt;/td&gt;&lt;/tr&gt;&lt;tr&gt;&lt;td&gt;&lt;font face=&quot;Helvetica&quot;&gt;relevance_flag&lt;/font&gt;&lt;/td&gt;&lt;td&gt;&lt;span style=&quot;font-weight: 400;&quot;&gt;&lt;font face=&quot;Helvetica&quot;&gt;BOOLEAN&lt;/font&gt;&lt;/span&gt;&lt;/td&gt;&lt;/tr&gt;&lt;/tbody&gt;&lt;/table&gt;" style="rhombus;whiteSpace=wrap;html=1;fillColor=#66B2FF;strokeColor=#000099;labelBackgroundColor=none;" parent="1" vertex="1">
          <mxGeometry x="-410" y="-3860" width="380" height="195" as="geometry" />
        </mxCell>
        <mxCell id="sLQFvHyLrfU1iwt5H_em-38" value="" style="endArrow=ERmany;html=1;rounded=0;startArrow=ERone;startFill=0;endFill=0;strokeColor=#FFB366;exitX=1;exitY=0.5;exitDx=0;exitDy=0;strokeWidth=3;entryX=0;entryY=0.5;entryDx=0;entryDy=0;edgeStyle=orthogonalEdgeStyle;" parent="1" source="sLQFvHyLrfU1iwt5H_em-4" target="sLQFvHyLrfU1iwt5H_em-36" edge="1">
          <mxGeometry width="50" height="50" relative="1" as="geometry">
            <mxPoint x="-334.93000000000006" y="95.88" as="sourcePoint" />
            <mxPoint x="-430.3299999999999" y="-2680.119999999999" as="targetPoint" />
          </mxGeometry>
        </mxCell>
        <mxCell id="sLQFvHyLrfU1iwt5H_em-44" value="" style="endArrow=ERmany;html=1;rounded=0;startArrow=ERone;startFill=0;endFill=0;strokeColor=#00994D;strokeWidth=3;entryX=1;entryY=0.5;entryDx=0;entryDy=0;edgeStyle=orthogonalEdgeStyle;exitX=0;exitY=0.25;exitDx=0;exitDy=0;" parent="1" source="-1b3vE4YZ-zce0Uezh61-28" target="sLQFvHyLrfU1iwt5H_em-36" edge="1">
          <mxGeometry relative="1" as="geometry">
            <mxPoint x="1740" y="-4520" as="sourcePoint" />
            <mxPoint x="1452.93" y="-2815.5" as="targetPoint" />
            <Array as="points">
              <mxPoint x="600" y="-4487" />
              <mxPoint x="600" y="-3762" />
            </Array>
          </mxGeometry>
        </mxCell>
        <mxCell id="OlY8BFRc42VOJzPLDtv4-3" value="" style="endArrow=ERmany;html=1;rounded=0;startArrow=ERone;startFill=0;endFill=0;strokeColor=#0000CC;strokeWidth=3;entryX=0.5;entryY=1;entryDx=0;entryDy=0;edgeStyle=orthogonalEdgeStyle;exitX=0.5;exitY=0;exitDx=0;exitDy=0;" parent="1" source="sLQFvHyLrfU1iwt5H_em-14" target="sLQFvHyLrfU1iwt5H_em-24" edge="1">
          <mxGeometry relative="1" as="geometry">
            <mxPoint x="340" y="-4540" as="sourcePoint" />
            <mxPoint x="539.1100000000001" y="-5065.38" as="targetPoint" />
            <Array as="points">
              <mxPoint x="-220" y="-4670" />
              <mxPoint x="-300" y="-4670" />
            </Array>
          </mxGeometry>
        </mxCell>
        <mxCell id="OlY8BFRc42VOJzPLDtv4-5" value="" style="endArrow=ERone;html=1;rounded=0;startArrow=ERmany;startFill=0;endFill=0;strokeColor=#0000CC;strokeWidth=3;edgeStyle=orthogonalEdgeStyle;exitX=0.5;exitY=0;exitDx=0;exitDy=0;entryX=0.5;entryY=1;entryDx=0;entryDy=0;" parent="1" source="sLQFvHyLrfU1iwt5H_em-36" target="sLQFvHyLrfU1iwt5H_em-14" edge="1">
          <mxGeometry relative="1" as="geometry">
            <mxPoint x="1413.3700000000001" y="-3865.25" as="sourcePoint" />
            <mxPoint x="318.9200000000001" y="-3603" as="targetPoint" />
          </mxGeometry>
        </mxCell>
        <mxCell id="OFezR76v9hvkfoCPLBLC-4" value="" style="endArrow=ERone;html=1;rounded=0;startArrow=ERmany;startFill=0;endFill=0;strokeColor=#00994D;strokeWidth=3;exitX=0;exitY=0.25;exitDx=0;exitDy=0;entryX=1;entryY=0.5;entryDx=0;entryDy=0;edgeStyle=orthogonalEdgeStyle;" parent="1" source="-1b3vE4YZ-zce0Uezh61-29" target="sLQFvHyLrfU1iwt5H_em-14" edge="1">
          <mxGeometry relative="1" as="geometry">
            <mxPoint x="2398" y="-4375.5" as="sourcePoint" />
            <mxPoint x="1070" y="-4342" as="targetPoint" />
          </mxGeometry>
        </mxCell>
        <mxCell id="OFezR76v9hvkfoCPLBLC-6" value="" style="endArrow=ERone;html=1;rounded=0;startArrow=ERmany;startFill=0;endFill=0;strokeColor=#0000CC;strokeWidth=3;edgeStyle=orthogonalEdgeStyle;exitX=1;exitY=0.5;exitDx=0;exitDy=0;entryX=0;entryY=0.5;entryDx=0;entryDy=0;" parent="1" source="sLQFvHyLrfU1iwt5H_em-26" target="-1b3vE4YZ-zce0Uezh61-27" edge="1">
          <mxGeometry relative="1" as="geometry">
            <mxPoint x="2035" y="-4390" as="sourcePoint" />
            <mxPoint x="3632.5" y="-5225" as="targetPoint" />
          </mxGeometry>
        </mxCell>
        <mxCell id="OFezR76v9hvkfoCPLBLC-9" value="" style="endArrow=ERmandOne;html=1;rounded=0;startArrow=ERmandOne;startFill=0;endFill=0;strokeColor=#0000CC;strokeWidth=3;entryX=1;entryY=0.5;entryDx=0;entryDy=0;exitX=0;exitY=0.5;exitDx=0;exitDy=0;edgeStyle=orthogonalEdgeStyle;" parent="1" source="sLQFvHyLrfU1iwt5H_em-26" target="sLQFvHyLrfU1iwt5H_em-23" edge="1">
          <mxGeometry relative="1" as="geometry">
            <mxPoint x="1541.6900000000005" y="-5225" as="sourcePoint" />
            <mxPoint x="2315" y="-5649.75" as="targetPoint" />
          </mxGeometry>
        </mxCell>
        <mxCell id="OFezR76v9hvkfoCPLBLC-13" value="" style="endArrow=ERone;html=1;rounded=0;startArrow=ERmany;startFill=0;endFill=0;strokeColor=#00994D;strokeWidth=3;exitX=0.5;exitY=1;exitDx=0;exitDy=0;entryX=0.5;entryY=0;entryDx=0;entryDy=0;edgeStyle=orthogonalEdgeStyle;" parent="1" source="sLQFvHyLrfU1iwt5H_em-25" target="-1b3vE4YZ-zce0Uezh61-28" edge="1">
          <mxGeometry relative="1" as="geometry">
            <mxPoint x="2622.38" y="-3536.37" as="sourcePoint" />
            <mxPoint x="1901.83" y="-2783.12" as="targetPoint" />
          </mxGeometry>
        </mxCell>
        <mxCell id="OFezR76v9hvkfoCPLBLC-19" value="" style="verticalAlign=middle;align=center;overflow=fill;html=1;rounded=0;shadow=0;comic=0;labelBackgroundColor=none;strokeWidth=1;fontFamily=Verdana;fontSize=12;labelBorderColor=#0000FF;whiteSpace=wrap;fillColor=#66B2FF;strokeColor=#000099;" parent="1" vertex="1">
          <mxGeometry x="-2019.25" y="-6788.75" width="530" height="240" as="geometry" />
        </mxCell>
        <mxCell id="OFezR76v9hvkfoCPLBLC-20" value="&lt;span style=&quot;text-wrap-mode: nowrap;&quot;&gt;&lt;b style=&quot;&quot;&gt;&lt;font style=&quot;font-size: 16px;&quot; face=&quot;Verdana&quot;&gt;&lt;u&gt;Пользователь-Канал&lt;br&gt;&lt;/u&gt;&lt;br&gt;&lt;/font&gt;&lt;/b&gt;&lt;/span&gt;&lt;table style=&quot;font-family: Verdana; text-align: left; font-weight: 700; border: 1px solid rgb(0, 0, 0); border-collapse: collapse;&quot; border=&quot;1&quot;&gt;&lt;tbody&gt;&lt;tr&gt;&lt;td&gt;&lt;font face=&quot;Helvetica&quot;&gt;user_channel_id&lt;/font&gt;&lt;/td&gt;&lt;td&gt;&lt;span style=&quot;font-weight: 400;&quot;&gt;&lt;font face=&quot;Helvetica&quot;&gt;UUID&lt;/font&gt;&lt;/span&gt;&lt;/td&gt;&lt;/tr&gt;&lt;tr&gt;&lt;td&gt;&lt;font face=&quot;Helvetica&quot;&gt;account_link&lt;/font&gt;&lt;/td&gt;&lt;td&gt;&lt;span style=&quot;font-weight: 400;&quot;&gt;&lt;font face=&quot;Helvetica&quot;&gt;VARCHAR(255)&lt;/font&gt;&lt;/span&gt;&lt;/td&gt;&lt;/tr&gt;&lt;tr&gt;&lt;td&gt;&lt;font face=&quot;Helvetica&quot;&gt;channel_phone&lt;/font&gt;&lt;/td&gt;&lt;td&gt;&lt;span style=&quot;font-weight: 400;&quot;&gt;&lt;font face=&quot;Helvetica&quot;&gt;VARCHAR(15)&lt;/font&gt;&lt;/span&gt;&lt;/td&gt;&lt;/tr&gt;&lt;/tbody&gt;&lt;/table&gt;" style="rhombus;whiteSpace=wrap;html=1;fillColor=#66B2FF;strokeColor=#000099;labelBackgroundColor=none;" parent="1" vertex="1">
          <mxGeometry x="-2019.25" y="-6788.75" width="530" height="238.38" as="geometry" />
        </mxCell>
        <mxCell id="OFezR76v9hvkfoCPLBLC-24" value="" style="endArrow=ERone;html=1;rounded=0;startArrow=ERmany;startFill=0;endFill=0;strokeColor=#00994D;strokeWidth=3;exitX=0.5;exitY=1;exitDx=0;exitDy=0;entryX=0.25;entryY=0;entryDx=0;entryDy=0;edgeStyle=orthogonalEdgeStyle;" parent="1" source="OFezR76v9hvkfoCPLBLC-20" target="-1b3vE4YZ-zce0Uezh61-26" edge="1">
          <mxGeometry relative="1" as="geometry">
            <mxPoint x="790" y="-6252.5" as="sourcePoint" />
            <mxPoint x="-1754.250000000001" y="-5996.75" as="targetPoint" />
          </mxGeometry>
        </mxCell>
        <mxCell id="OFezR76v9hvkfoCPLBLC-27" value="" style="endArrow=ERone;html=1;rounded=0;startArrow=ERmany;startFill=0;endFill=0;strokeColor=#FFB366;strokeWidth=3;edgeStyle=orthogonalEdgeStyle;exitX=0.5;exitY=0;exitDx=0;exitDy=0;entryX=0.5;entryY=1;entryDx=0;entryDy=0;" parent="1" source="OFezR76v9hvkfoCPLBLC-19" target="sLQFvHyLrfU1iwt5H_em-3" edge="1">
          <mxGeometry relative="1" as="geometry">
            <mxPoint x="-1754.250000000001" y="-7127.5" as="sourcePoint" />
            <mxPoint x="-1399.25" y="-7199.07" as="targetPoint" />
          </mxGeometry>
        </mxCell>
        <mxCell id="OFezR76v9hvkfoCPLBLC-30" value="" style="endArrow=ERone;html=1;rounded=0;startArrow=ERmany;startFill=0;endFill=0;strokeColor=#00994D;strokeWidth=3;exitX=1;exitY=1;exitDx=0;exitDy=0;entryX=0.5;entryY=0;entryDx=0;entryDy=0;edgeStyle=orthogonalEdgeStyle;" parent="1" source="r91CUSoRpn2MUXCP_Wex-3" target="-1b3vE4YZ-zce0Uezh61-29" edge="1">
          <mxGeometry relative="1" as="geometry">
            <mxPoint x="1881.5" y="-5694.5" as="sourcePoint" />
            <mxPoint x="1730" y="-4892.88" as="targetPoint" />
          </mxGeometry>
        </mxCell>
        <mxCell id="OFezR76v9hvkfoCPLBLC-36" value="" style="endArrow=ERone;html=1;rounded=0;startArrow=ERmany;startFill=0;endFill=0;strokeColor=#0000CC;strokeWidth=3;entryX=0.5;entryY=0;entryDx=0;entryDy=0;exitX=0.5;exitY=1;exitDx=0;exitDy=0;edgeStyle=orthogonalEdgeStyle;" parent="1" source="sLQFvHyLrfU1iwt5H_em-21" target="sLQFvHyLrfU1iwt5H_em-13" edge="1">
          <mxGeometry relative="1" as="geometry">
            <mxPoint x="226.69000000000005" y="-7347.76" as="sourcePoint" />
            <mxPoint x="55.75" y="-7225" as="targetPoint" />
          </mxGeometry>
        </mxCell>
        <mxCell id="OFezR76v9hvkfoCPLBLC-39" value="" style="endArrow=ERmany;html=1;rounded=0;startArrow=ERone;startFill=0;endFill=0;strokeColor=#FFB366;entryX=0;entryY=0.5;entryDx=0;entryDy=0;strokeWidth=2;exitX=1;exitY=0.5;exitDx=0;exitDy=0;edgeStyle=orthogonalEdgeStyle;" parent="1" source="sLQFvHyLrfU1iwt5H_em-3" target="sLQFvHyLrfU1iwt5H_em-21" edge="1">
          <mxGeometry width="50" height="50" relative="1" as="geometry">
            <mxPoint x="-478.5" y="-7183.26" as="sourcePoint" />
            <mxPoint x="-900" y="-7413.375" as="targetPoint" />
          </mxGeometry>
        </mxCell>
        <mxCell id="OFezR76v9hvkfoCPLBLC-85" value="" style="endArrow=ERone;html=1;rounded=0;startArrow=ERone;startFill=0;endFill=0;strokeColor=#0000CC;strokeWidth=3;exitX=1.004;exitY=0.466;exitDx=0;exitDy=0;entryX=0;entryY=0.5;entryDx=0;entryDy=0;exitPerimeter=0;edgeStyle=orthogonalEdgeStyle;" parent="1" source="sLQFvHyLrfU1iwt5H_em-7" target="sLQFvHyLrfU1iwt5H_em-22" edge="1">
          <mxGeometry relative="1" as="geometry">
            <mxPoint x="2402.35" y="-6470" as="sourcePoint" />
            <mxPoint x="890" y="-7145" as="targetPoint" />
          </mxGeometry>
        </mxCell>
        <mxCell id="OFezR76v9hvkfoCPLBLC-89" value="" style="endArrow=ERmany;html=1;rounded=0;startArrow=ERone;startFill=0;endFill=0;strokeColor=#0000CC;strokeWidth=3;entryX=0.25;entryY=0;entryDx=0;entryDy=0;exitX=1;exitY=0.75;exitDx=0;exitDy=0;edgeStyle=orthogonalEdgeStyle;" parent="1" source="sLQFvHyLrfU1iwt5H_em-7" target="r91CUSoRpn2MUXCP_Wex-3" edge="1">
          <mxGeometry relative="1" as="geometry">
            <mxPoint x="1802.35" y="-6386" as="sourcePoint" />
            <mxPoint x="1802.35" y="-6220" as="targetPoint" />
          </mxGeometry>
        </mxCell>
        <mxCell id="OFezR76v9hvkfoCPLBLC-108" value="" style="endArrow=ERone;html=1;rounded=0;startArrow=ERmany;startFill=0;endFill=0;strokeColor=#FFB366;entryX=1;entryY=0.5;entryDx=0;entryDy=0;strokeWidth=2;edgeStyle=orthogonalEdgeStyle;exitX=0.5;exitY=0;exitDx=0;exitDy=0;" parent="1" source="sLQFvHyLrfU1iwt5H_em-22" target="sLQFvHyLrfU1iwt5H_em-2" edge="1">
          <mxGeometry width="50" height="50" relative="1" as="geometry">
            <mxPoint x="3910" y="-6540" as="sourcePoint" />
            <mxPoint x="3910" y="-6700" as="targetPoint" />
          </mxGeometry>
        </mxCell>
        <mxCell id="OFezR76v9hvkfoCPLBLC-111" value="" style="endArrow=ERmany;html=1;rounded=0;startArrow=ERone;startFill=0;endFill=0;strokeColor=#0000CC;strokeWidth=3;entryX=0;entryY=0.25;entryDx=0;entryDy=0;exitX=1;exitY=0;exitDx=0;exitDy=0;edgeStyle=orthogonalEdgeStyle;" parent="1" source="r91CUSoRpn2MUXCP_Wex-3" target="sLQFvHyLrfU1iwt5H_em-22" edge="1">
          <mxGeometry relative="1" as="geometry">
            <mxPoint x="2279.9699999999993" y="-6733.19" as="sourcePoint" />
            <mxPoint x="2964.4" y="-6492.13" as="targetPoint" />
          </mxGeometry>
        </mxCell>
        <mxCell id="OFezR76v9hvkfoCPLBLC-112" value="" style="endArrow=ERone;html=1;rounded=0;startArrow=ERmany;startFill=0;endFill=0;strokeColor=#0000CC;strokeWidth=3;entryX=0.25;entryY=0;entryDx=0;entryDy=0;exitX=0.25;exitY=1;exitDx=0;exitDy=0;edgeStyle=orthogonalEdgeStyle;" parent="1" source="sLQFvHyLrfU1iwt5H_em-22" target="sLQFvHyLrfU1iwt5H_em-23" edge="1">
          <mxGeometry relative="1" as="geometry">
            <mxPoint x="2683" y="-5180" as="sourcePoint" />
            <mxPoint x="855" y="-4884.25" as="targetPoint" />
            <Array as="points">
              <mxPoint x="2934" y="-6540" />
              <mxPoint x="-445" y="-6540" />
            </Array>
          </mxGeometry>
        </mxCell>
        <mxCell id="OFezR76v9hvkfoCPLBLC-120" value="" style="endArrow=ERone;html=1;rounded=0;startArrow=ERmany;startFill=0;endFill=0;strokeColor=#0000CC;strokeWidth=3;entryX=1;entryY=0;entryDx=0;entryDy=0;exitX=0;exitY=1;exitDx=0;exitDy=0;edgeStyle=orthogonalEdgeStyle;" parent="1" source="sLQFvHyLrfU1iwt5H_em-22" target="sLQFvHyLrfU1iwt5H_em-25" edge="1">
          <mxGeometry relative="1" as="geometry">
            <mxPoint x="4080" y="-4530" as="sourcePoint" />
            <mxPoint x="2960" y="-3275" as="targetPoint" />
          </mxGeometry>
        </mxCell>
        <mxCell id="OFezR76v9hvkfoCPLBLC-137" value="" style="endArrow=ERone;html=1;rounded=0;startArrow=ERone;startFill=0;endFill=0;strokeColor=#0000CC;strokeWidth=3;exitX=0.5;exitY=0;exitDx=0;exitDy=0;edgeStyle=orthogonalEdgeStyle;entryX=0;entryY=0.5;entryDx=0;entryDy=0;" parent="1" source="sLQFvHyLrfU1iwt5H_em-26" target="sLQFvHyLrfU1iwt5H_em-5" edge="1">
          <mxGeometry relative="1" as="geometry">
            <mxPoint x="3872.5" y="-5950" as="sourcePoint" />
            <mxPoint x="4226" y="-6054.54" as="targetPoint" />
          </mxGeometry>
        </mxCell>
        <mxCell id="OFezR76v9hvkfoCPLBLC-140" value="" style="verticalAlign=middle;align=center;overflow=fill;html=1;rounded=0;shadow=0;comic=0;labelBackgroundColor=none;strokeWidth=1;fontFamily=Verdana;fontSize=12;labelBorderColor=#0000FF;whiteSpace=wrap;fillColor=#66B2FF;strokeColor=#000099;" parent="1" vertex="1">
          <mxGeometry x="4400" y="-7890" width="470" height="300" as="geometry" />
        </mxCell>
        <mxCell id="OFezR76v9hvkfoCPLBLC-141" value="&lt;span style=&quot;text-wrap-mode: nowrap;&quot;&gt;&lt;b style=&quot;&quot;&gt;&lt;font style=&quot;font-size: 16px;&quot; face=&quot;Verdana&quot;&gt;&lt;u&gt;Пользователь-Банк&lt;br&gt;&lt;/u&gt;&lt;br&gt;&lt;/font&gt;&lt;/b&gt;&lt;/span&gt;&lt;table style=&quot;font-family: Verdana; text-align: left; font-weight: 700; border: 1px solid rgb(0, 0, 0); border-collapse: collapse;&quot; border=&quot;1&quot;&gt;&lt;tbody&gt;&lt;tr&gt;&lt;td&gt;&lt;font face=&quot;Helvetica&quot;&gt;user_bank_id&lt;/font&gt;&lt;/td&gt;&lt;td&gt;&lt;span style=&quot;font-weight: 400;&quot;&gt;&lt;font face=&quot;Helvetica&quot;&gt;UUID&lt;/font&gt;&lt;/span&gt;&lt;/td&gt;&lt;/tr&gt;&lt;tr&gt;&lt;td&gt;&lt;font face=&quot;Helvetica&quot;&gt;selected_flag&lt;/font&gt;&lt;/td&gt;&lt;td&gt;&lt;span style=&quot;font-weight: normal;&quot;&gt;&lt;font face=&quot;Helvetica&quot;&gt;BOOLEAN&lt;/font&gt;&lt;/span&gt;&lt;/td&gt;&lt;/tr&gt;&lt;tr&gt;&lt;td&gt;&lt;font face=&quot;Helvetica&quot;&gt;request_date&lt;/font&gt;&lt;/td&gt;&lt;td&gt;&lt;span style=&quot;font-weight: 400;&quot;&gt;&lt;font face=&quot;Helvetica&quot;&gt;DATE&lt;/font&gt;&lt;/span&gt;&lt;/td&gt;&lt;/tr&gt;&lt;tr&gt;&lt;td&gt;&lt;font face=&quot;Helvetica&quot;&gt;request_time&lt;/font&gt;&lt;/td&gt;&lt;td&gt;&lt;span style=&quot;font-weight: 400;&quot;&gt;&lt;font face=&quot;Helvetica&quot;&gt;TIME&lt;/font&gt;&lt;/span&gt;&lt;/td&gt;&lt;/tr&gt;&lt;tr&gt;&lt;td&gt;&lt;font face=&quot;Helvetica&quot;&gt;card_number&lt;/font&gt;&lt;/td&gt;&lt;td&gt;&lt;span style=&quot;font-weight: 400;&quot;&gt;&lt;font face=&quot;Helvetica&quot;&gt;VARCHAR (19)&lt;/font&gt;&lt;/span&gt;&lt;/td&gt;&lt;/tr&gt;&lt;tr&gt;&lt;td&gt;&lt;font face=&quot;Helvetica&quot;&gt;expiration_date&lt;/font&gt;&lt;/td&gt;&lt;td&gt;&lt;span style=&quot;font-weight: 400;&quot;&gt;&lt;font face=&quot;Helvetica&quot;&gt;CHAR (5)&lt;/font&gt;&lt;/span&gt;&lt;/td&gt;&lt;/tr&gt;&lt;tr&gt;&lt;td&gt;&lt;font face=&quot;Helvetica&quot;&gt;card_holder&lt;/font&gt;&lt;/td&gt;&lt;td&gt;&lt;span style=&quot;font-weight: 400;&quot;&gt;&lt;font face=&quot;Helvetica&quot;&gt;VARCHAR (100)&lt;/font&gt;&lt;/span&gt;&lt;/td&gt;&lt;/tr&gt;&lt;tr&gt;&lt;td&gt;&lt;font face=&quot;Helvetica&quot;&gt;cvv&lt;/font&gt;&lt;/td&gt;&lt;td&gt;&lt;span style=&quot;font-weight: 400;&quot;&gt;&lt;font face=&quot;Helvetica&quot;&gt;CHAR (3)&lt;/font&gt;&lt;/span&gt;&lt;/td&gt;&lt;/tr&gt;&lt;/tbody&gt;&lt;/table&gt;" style="rhombus;whiteSpace=wrap;html=1;fillColor=#66B2FF;strokeColor=#000099;labelBackgroundColor=none;" parent="1" vertex="1">
          <mxGeometry x="4400" y="-7890" width="470" height="310" as="geometry" />
        </mxCell>
        <mxCell id="OFezR76v9hvkfoCPLBLC-144" value="" style="endArrow=ERone;html=1;rounded=0;startArrow=ERmany;startFill=0;endFill=0;strokeColor=#00994D;strokeWidth=3;entryX=0.75;entryY=0;entryDx=0;entryDy=0;edgeStyle=orthogonalEdgeStyle;exitX=0;exitY=0.25;exitDx=0;exitDy=0;" parent="1" source="OFezR76v9hvkfoCPLBLC-140" target="-1b3vE4YZ-zce0Uezh61-26" edge="1">
          <mxGeometry relative="1" as="geometry">
            <mxPoint x="4350" y="-7710" as="sourcePoint" />
            <mxPoint x="-1065.75" y="-5560.88" as="targetPoint" />
            <Array as="points">
              <mxPoint x="4250" y="-7815" />
              <mxPoint x="4250" y="-7610" />
              <mxPoint x="1456" y="-7610" />
              <mxPoint x="1456" y="-5990" />
              <mxPoint x="-1583" y="-5990" />
            </Array>
          </mxGeometry>
        </mxCell>
        <mxCell id="OFezR76v9hvkfoCPLBLC-147" value="" style="endArrow=ERmany;html=1;rounded=0;startArrow=ERone;startFill=0;endFill=0;strokeColor=#FFB366;strokeWidth=3;edgeStyle=orthogonalEdgeStyle;exitX=0;exitY=0.5;exitDx=0;exitDy=0;entryX=1;entryY=0.5;entryDx=0;entryDy=0;" parent="1" source="sLQFvHyLrfU1iwt5H_em-1" target="OFezR76v9hvkfoCPLBLC-141" edge="1">
          <mxGeometry relative="1" as="geometry">
            <mxPoint x="6280" y="-7735" as="sourcePoint" />
            <mxPoint x="6041.25" y="-7570" as="targetPoint" />
          </mxGeometry>
        </mxCell>
        <mxCell id="OFezR76v9hvkfoCPLBLC-151" value="" style="endArrow=ERone;html=1;rounded=0;startArrow=ERmany;startFill=0;endFill=0;strokeColor=#33FF99;strokeWidth=3;edgeStyle=orthogonalEdgeStyle;exitX=0.5;exitY=1;exitDx=0;exitDy=0;" parent="1" source="OFezR76v9hvkfoCPLBLC-141" target="OFezR76v9hvkfoCPLBLC-149" edge="1">
          <mxGeometry width="50" height="50" relative="1" as="geometry">
            <mxPoint x="5835.65" y="-7461.25" as="sourcePoint" />
            <mxPoint x="5555" y="-7470" as="targetPoint" />
          </mxGeometry>
        </mxCell>
        <mxCell id="OFezR76v9hvkfoCPLBLC-155" value="" style="endArrow=ERone;html=1;rounded=0;startArrow=ERmany;startFill=0;endFill=0;strokeColor=#FFB366;strokeWidth=3;edgeStyle=orthogonalEdgeStyle;exitX=1;exitY=0.5;exitDx=0;exitDy=0;entryX=0.5;entryY=1;entryDx=0;entryDy=0;" parent="1" source="sLQFvHyLrfU1iwt5H_em-19" target="sLQFvHyLrfU1iwt5H_em-1" edge="1">
          <mxGeometry width="50" height="50" relative="1" as="geometry">
            <mxPoint x="7446.25" y="-7146.49" as="sourcePoint" />
            <mxPoint x="6861.25" y="-7241.25" as="targetPoint" />
          </mxGeometry>
        </mxCell>
        <mxCell id="OFezR76v9hvkfoCPLBLC-165" value="" style="endArrow=ERone;html=1;rounded=0;startArrow=ERmany;startFill=0;endFill=0;strokeColor=#0000CC;strokeWidth=3;edgeStyle=orthogonalEdgeStyle;exitX=0;exitY=0.5;exitDx=0;exitDy=0;entryX=1;entryY=0.5;entryDx=0;entryDy=0;" parent="1" source="sLQFvHyLrfU1iwt5H_em-19" target="OFezR76v9hvkfoCPLBLC-149" edge="1">
          <mxGeometry relative="1" as="geometry">
            <mxPoint x="6120" y="-7062.37" as="sourcePoint" />
            <mxPoint x="6241.25" y="-7321.25" as="targetPoint" />
          </mxGeometry>
        </mxCell>
        <mxCell id="OFezR76v9hvkfoCPLBLC-172" value="" style="endArrow=ERone;html=1;rounded=0;startArrow=ERone;startFill=0;endFill=0;strokeColor=#33FF99;strokeWidth=3;entryX=0.5;entryY=0;entryDx=0;entryDy=0;exitX=0.5;exitY=1;exitDx=0;exitDy=0;edgeStyle=orthogonalEdgeStyle;" parent="1" source="OFezR76v9hvkfoCPLBLC-149" target="sLQFvHyLrfU1iwt5H_em-6" edge="1">
          <mxGeometry width="50" height="50" relative="1" as="geometry">
            <mxPoint x="5857" y="-6955.88" as="sourcePoint" />
            <mxPoint x="5550.75" y="-6580.88" as="targetPoint" />
          </mxGeometry>
        </mxCell>
        <mxCell id="OFezR76v9hvkfoCPLBLC-175" value="" style="endArrow=ERone;html=1;rounded=0;startArrow=ERmany;startFill=0;endFill=0;strokeColor=#0000CC;strokeWidth=3;exitX=0.5;exitY=1;exitDx=0;exitDy=0;entryX=0.25;entryY=0;entryDx=0;entryDy=0;edgeStyle=orthogonalEdgeStyle;" parent="1" source="sLQFvHyLrfU1iwt5H_em-22" target="sLQFvHyLrfU1iwt5H_em-5" edge="1">
          <mxGeometry relative="1" as="geometry">
            <mxPoint x="3110" y="-6968" as="sourcePoint" />
            <mxPoint x="4595" y="-6513.38" as="targetPoint" />
          </mxGeometry>
        </mxCell>
        <mxCell id="OFezR76v9hvkfoCPLBLC-184" value="" style="endArrow=ERone;html=1;rounded=0;startArrow=ERmany;startFill=0;endFill=0;strokeColor=#FFB366;strokeWidth=2;exitX=0;exitY=0.25;exitDx=0;exitDy=0;entryX=1;entryY=0.25;entryDx=0;entryDy=0;edgeStyle=orthogonalEdgeStyle;" parent="1" source="sLQFvHyLrfU1iwt5H_em-5" target="sLQFvHyLrfU1iwt5H_em-2" edge="1">
          <mxGeometry width="50" height="50" relative="1" as="geometry">
            <mxPoint x="4565.75" y="-7117.88" as="sourcePoint" />
            <mxPoint x="3400" y="-8270" as="targetPoint" />
          </mxGeometry>
        </mxCell>
        <mxCell id="OFezR76v9hvkfoCPLBLC-186" value="&lt;span style=&quot;font-size: 11px; text-wrap-mode: nowrap;&quot;&gt;&lt;b&gt;Относится к агрегирующей &lt;br&gt;информации&lt;/b&gt;&lt;/span&gt;" style="rhombus;whiteSpace=wrap;html=1;fillColor=#FF9999;strokeColor=#CC0000;gradientColor=none;labelBackgroundColor=none;" parent="1" vertex="1">
          <mxGeometry x="5640" y="-9600" width="160" height="168.25" as="geometry" />
        </mxCell>
        <mxCell id="OFezR76v9hvkfoCPLBLC-187" style="rounded=0;orthogonalLoop=1;jettySize=auto;html=1;exitX=0.5;exitY=1;exitDx=0;exitDy=0;entryX=0.5;entryY=0;entryDx=0;entryDy=0;edgeStyle=orthogonalEdgeStyle;" parent="1" source="-1b3vE4YZ-zce0Uezh61-15" target="OFezR76v9hvkfoCPLBLC-186" edge="1">
          <mxGeometry relative="1" as="geometry">
            <mxPoint x="5285" y="-9700" as="sourcePoint" />
            <mxPoint x="5550" y="-9598" as="targetPoint" />
          </mxGeometry>
        </mxCell>
        <mxCell id="OFezR76v9hvkfoCPLBLC-190" value="" style="endArrow=ERone;html=1;rounded=0;startArrow=ERone;startFill=0;endFill=0;strokeColor=#FF9999;strokeWidth=3;exitX=0;exitY=0.5;exitDx=0;exitDy=0;entryX=1;entryY=0.5;entryDx=0;entryDy=0;" parent="1" source="sLQFvHyLrfU1iwt5H_em-17" target="OFezR76v9hvkfoCPLBLC-192" edge="1">
          <mxGeometry relative="1" as="geometry">
            <mxPoint x="7505" y="-5904.1900000000005" as="sourcePoint" />
            <mxPoint x="8220" y="-5730.875" as="targetPoint" />
          </mxGeometry>
        </mxCell>
        <mxCell id="OFezR76v9hvkfoCPLBLC-191" value="" style="verticalAlign=middle;align=center;overflow=fill;html=1;rounded=0;shadow=0;comic=0;labelBackgroundColor=none;strokeWidth=1;fontFamily=Verdana;fontSize=12;labelBorderColor=#0000FF;whiteSpace=wrap;fillColor=#FF9999;strokeColor=#CC0000;" parent="1" vertex="1">
          <mxGeometry x="5910" y="-6070" width="480" height="288.25" as="geometry" />
        </mxCell>
        <mxCell id="OFezR76v9hvkfoCPLBLC-192" value="&lt;span style=&quot;text-wrap-mode: nowrap;&quot;&gt;&lt;b style=&quot;&quot;&gt;&lt;font style=&quot;font-size: 16px;&quot; face=&quot;Verdana&quot;&gt;&lt;u&gt;Онлайн-чек - Запись&lt;br&gt;&lt;/u&gt;&lt;br&gt;&lt;/font&gt;&lt;/b&gt;&lt;/span&gt;&lt;table style=&quot;font-family: Verdana; text-align: left; font-weight: 700; border: 1px solid rgb(0, 0, 0); border-collapse: collapse;&quot; border=&quot;1&quot;&gt;&lt;tbody&gt;&lt;tr&gt;&lt;td&gt;&lt;font face=&quot;Helvetica&quot;&gt;online_check_record_id&lt;/font&gt;&lt;/td&gt;&lt;td&gt;&lt;span style=&quot;font-weight: normal;&quot;&gt;&lt;font face=&quot;Helvetica&quot;&gt;UUID&lt;/font&gt;&lt;/span&gt;&lt;/td&gt;&lt;/tr&gt;&lt;tr&gt;&lt;td&gt;&lt;font face=&quot;Helvetica&quot;&gt;check_send_date&lt;/font&gt;&lt;/td&gt;&lt;td&gt;&lt;span style=&quot;font-weight: normal;&quot;&gt;&lt;font face=&quot;Helvetica&quot;&gt;DATE&lt;/font&gt;&lt;/span&gt;&lt;/td&gt;&lt;/tr&gt;&lt;tr&gt;&lt;td&gt;&lt;font face=&quot;Helvetica&quot;&gt;check_send_time&lt;/font&gt;&lt;/td&gt;&lt;td&gt;&lt;span style=&quot;font-weight: normal;&quot;&gt;&lt;font face=&quot;Helvetica&quot;&gt;TIME&lt;/font&gt;&lt;/span&gt;&lt;/td&gt;&lt;/tr&gt;&lt;/tbody&gt;&lt;/table&gt;" style="rhombus;whiteSpace=wrap;html=1;fillColor=#FF9999;strokeColor=#CC0000;labelBackgroundColor=none;" parent="1" vertex="1">
          <mxGeometry x="5910" y="-6070" width="480" height="268.25" as="geometry" />
        </mxCell>
        <mxCell id="OFezR76v9hvkfoCPLBLC-195" value="" style="endArrow=ERone;html=1;rounded=0;startArrow=ERmany;startFill=0;endFill=0;strokeColor=#0000CC;strokeWidth=3;edgeStyle=orthogonalEdgeStyle;entryX=1;entryY=0.5;entryDx=0;entryDy=0;" parent="1" source="OFezR76v9hvkfoCPLBLC-192" target="sLQFvHyLrfU1iwt5H_em-6" edge="1">
          <mxGeometry relative="1" as="geometry">
            <mxPoint x="6351.5" y="-6276.63" as="sourcePoint" />
            <mxPoint x="6381.5" y="-6080.87" as="targetPoint" />
          </mxGeometry>
        </mxCell>
        <mxCell id="OFezR76v9hvkfoCPLBLC-198" value="" style="endArrow=ERone;html=1;rounded=0;startArrow=ERmany;startFill=0;endFill=0;strokeColor=#FF9999;strokeWidth=3;edgeStyle=orthogonalEdgeStyle;exitX=0.5;exitY=0;exitDx=0;exitDy=0;entryX=0.75;entryY=1;entryDx=0;entryDy=0;" parent="1" source="sLQFvHyLrfU1iwt5H_em-17" target="OFezR76v9hvkfoCPLBLC-149" edge="1">
          <mxGeometry relative="1" as="geometry">
            <mxPoint x="7206.25" y="-6797.125" as="sourcePoint" />
            <mxPoint x="6021.25" y="-6948" as="targetPoint" />
            <Array as="points">
              <mxPoint x="6847" y="-6750" />
              <mxPoint x="4720" y="-6750" />
            </Array>
          </mxGeometry>
        </mxCell>
        <mxCell id="OFezR76v9hvkfoCPLBLC-206" value="" style="endArrow=ERmany;html=1;rounded=0;startArrow=ERone;startFill=0;endFill=0;strokeColor=#FF9999;strokeWidth=3;exitX=0.5;exitY=0;exitDx=0;exitDy=0;edgeStyle=orthogonalEdgeStyle;entryX=0.25;entryY=1;entryDx=0;entryDy=0;" parent="1" source="-1b3vE4YZ-zce0Uezh61-26" target="OFezR76v9hvkfoCPLBLC-191" edge="1">
          <mxGeometry relative="1" as="geometry">
            <mxPoint x="7020" y="-5735.125" as="sourcePoint" />
            <mxPoint x="7410" y="-5940" as="targetPoint" />
          </mxGeometry>
        </mxCell>
        <mxCell id="OFezR76v9hvkfoCPLBLC-208" value="" style="endArrow=ERone;html=1;rounded=0;startArrow=ERmany;startFill=0;endFill=0;strokeColor=#0000CC;strokeWidth=3;exitX=0.5;exitY=1;exitDx=0;exitDy=0;entryX=0.5;entryY=0;entryDx=0;entryDy=0;edgeStyle=orthogonalEdgeStyle;" parent="1" source="-1b3vE4YZ-zce0Uezh61-27" target="UxCQf2-TTkSFet72A3ar-43" edge="1">
          <mxGeometry relative="1" as="geometry">
            <mxPoint x="4200" y="-5328.25" as="sourcePoint" />
            <mxPoint x="4981.5" y="-5225" as="targetPoint" />
          </mxGeometry>
        </mxCell>
        <mxCell id="OFezR76v9hvkfoCPLBLC-212" value="" style="endArrow=ERmany;html=1;rounded=0;startArrow=ERone;startFill=0;endFill=0;strokeColor=#0000CC;strokeWidth=3;exitX=0.5;exitY=1;exitDx=0;exitDy=0;entryX=0.5;entryY=0;entryDx=0;entryDy=0;edgeStyle=orthogonalEdgeStyle;" parent="1" source="sLQFvHyLrfU1iwt5H_em-9" target="sLQFvHyLrfU1iwt5H_em-20" edge="1">
          <mxGeometry relative="1" as="geometry">
            <mxPoint x="6206.119999999997" y="-4460" as="sourcePoint" />
            <mxPoint x="6402.12" y="-4520.75" as="targetPoint" />
          </mxGeometry>
        </mxCell>
        <mxCell id="OFezR76v9hvkfoCPLBLC-213" value="" style="verticalAlign=middle;align=center;overflow=fill;html=1;rounded=0;shadow=0;comic=0;labelBackgroundColor=none;strokeWidth=1;fontFamily=Verdana;fontSize=12;labelBorderColor=#0000FF;whiteSpace=wrap;fillColor=#66B2FF;strokeColor=#000099;" parent="1" vertex="1">
          <mxGeometry x="3180" y="-4330" width="550" height="370" as="geometry" />
        </mxCell>
        <mxCell id="OFezR76v9hvkfoCPLBLC-214" value="&lt;span style=&quot;text-wrap-mode: nowrap;&quot;&gt;&lt;b style=&quot;&quot;&gt;&lt;font style=&quot;font-size: 16px;&quot; face=&quot;Verdana&quot;&gt;&lt;u&gt;Мастер-Отзыв&lt;/u&gt;&lt;br&gt;&lt;br&gt;&lt;/font&gt;&lt;/b&gt;&lt;/span&gt;&lt;table style=&quot;font-family: Verdana; text-align: left; font-weight: 700; border: 1px solid rgb(0, 0, 0); border-collapse: collapse;&quot; border=&quot;1&quot;&gt;&lt;tbody&gt;&lt;tr&gt;&lt;td&gt;&lt;font face=&quot;Helvetica&quot;&gt;master_review_id&lt;br&gt;&lt;/font&gt;&lt;/td&gt;&lt;td style=&quot;border-collapse: collapse;&quot; border=&quot;1&quot;&gt;&lt;span style=&quot;font-weight: normal;&quot;&gt;&lt;font face=&quot;Helvetica&quot;&gt;UUID&lt;/font&gt;&lt;/span&gt;&lt;/td&gt;&lt;/tr&gt;&lt;/tbody&gt;&lt;/table&gt;" style="rhombus;whiteSpace=wrap;html=1;fillColor=#66B2FF;strokeColor=#000099;labelBackgroundColor=none;" parent="1" vertex="1">
          <mxGeometry x="3180" y="-4330" width="550" height="370" as="geometry" />
        </mxCell>
        <mxCell id="OFezR76v9hvkfoCPLBLC-218" value="" style="endArrow=ERmany;html=1;rounded=0;startArrow=ERone;startFill=0;endFill=0;strokeColor=#0000CC;strokeWidth=3;exitX=0.5;exitY=0;exitDx=0;exitDy=0;entryX=0;entryY=0.5;entryDx=0;entryDy=0;edgeStyle=orthogonalEdgeStyle;" parent="1" source="OFezR76v9hvkfoCPLBLC-214" target="sLQFvHyLrfU1iwt5H_em-11" edge="1">
          <mxGeometry relative="1" as="geometry">
            <mxPoint x="5590" y="-4606.75" as="sourcePoint" />
            <mxPoint x="6005" y="-4720" as="targetPoint" />
          </mxGeometry>
        </mxCell>
        <mxCell id="OFezR76v9hvkfoCPLBLC-222" value="" style="endArrow=ERone;html=1;rounded=0;startArrow=ERone;startFill=0;endFill=0;strokeColor=#0000CC;strokeWidth=3;exitX=0.75;exitY=0;exitDx=0;exitDy=0;entryX=0.75;entryY=1;entryDx=0;entryDy=0;edgeStyle=orthogonalEdgeStyle;" parent="1" source="-1b3vE4YZ-zce0Uezh61-27" target="sLQFvHyLrfU1iwt5H_em-22" edge="1">
          <mxGeometry relative="1" as="geometry">
            <mxPoint x="4100" y="-5040" as="sourcePoint" />
            <mxPoint x="4100" y="-4932" as="targetPoint" />
          </mxGeometry>
        </mxCell>
        <mxCell id="OFezR76v9hvkfoCPLBLC-230" value="" style="endArrow=ERmany;html=1;rounded=0;startArrow=ERone;startFill=0;endFill=0;strokeColor=#00994D;strokeWidth=3;exitX=0.75;exitY=0;exitDx=0;exitDy=0;entryX=0.5;entryY=1;entryDx=0;entryDy=0;edgeStyle=orthogonalEdgeStyle;" parent="1" source="-1b3vE4YZ-zce0Uezh61-30" target="-1b3vE4YZ-zce0Uezh61-28" edge="1">
          <mxGeometry relative="1" as="geometry">
            <mxPoint x="3041.69" y="-3105.25" as="sourcePoint" />
            <mxPoint x="2306.69" y="-2930.25" as="targetPoint" />
          </mxGeometry>
        </mxCell>
        <mxCell id="OFezR76v9hvkfoCPLBLC-231" value="" style="endArrow=ERmany;html=1;rounded=0;startArrow=ERone;startFill=0;endFill=0;strokeColor=#00994D;strokeWidth=3;exitX=0.25;exitY=0;exitDx=0;exitDy=0;edgeStyle=orthogonalEdgeStyle;entryX=0.25;entryY=1;entryDx=0;entryDy=0;" parent="1" source="-1b3vE4YZ-zce0Uezh61-30" target="-1b3vE4YZ-zce0Uezh61-29" edge="1">
          <mxGeometry relative="1" as="geometry">
            <mxPoint x="3436.69" y="-3045.25" as="sourcePoint" />
            <mxPoint x="1060" y="-3990" as="targetPoint" />
            <Array as="points">
              <mxPoint x="675" y="-3920" />
              <mxPoint x="1125" y="-3920" />
            </Array>
          </mxGeometry>
        </mxCell>
        <mxCell id="OFezR76v9hvkfoCPLBLC-236" value="" style="endArrow=ERone;html=1;rounded=0;startArrow=ERmany;startFill=0;endFill=0;strokeColor=#FF9999;strokeWidth=3;edgeStyle=orthogonalEdgeStyle;entryX=1;entryY=0.25;entryDx=0;entryDy=0;exitX=0;exitY=0.5;exitDx=0;exitDy=0;" parent="1" source="OFezR76v9hvkfoCPLBLC-239" target="UxCQf2-TTkSFet72A3ar-123" edge="1">
          <mxGeometry relative="1" as="geometry">
            <mxPoint x="4855.75" y="-3945.88" as="sourcePoint" />
            <mxPoint x="4641.5" y="-3325.875" as="targetPoint" />
          </mxGeometry>
        </mxCell>
        <mxCell id="OFezR76v9hvkfoCPLBLC-238" value="" style="verticalAlign=middle;align=center;overflow=fill;html=1;rounded=0;shadow=0;comic=0;labelBackgroundColor=none;strokeWidth=1;fontFamily=Verdana;fontSize=12;labelBorderColor=#0000FF;whiteSpace=wrap;fillColor=#FF9999;strokeColor=#CC0000;" parent="1" vertex="1">
          <mxGeometry x="3940" y="-3445" width="540" height="280" as="geometry" />
        </mxCell>
        <mxCell id="OFezR76v9hvkfoCPLBLC-239" value="&lt;span style=&quot;text-wrap-mode: nowrap;&quot;&gt;&lt;b style=&quot;&quot;&gt;&lt;font style=&quot;font-size: 16px;&quot; face=&quot;Verdana&quot;&gt;&lt;u&gt;Сеанс-Запрос&lt;/u&gt;&lt;br&gt;&lt;br&gt;&lt;/font&gt;&lt;/b&gt;&lt;/span&gt;&lt;table style=&quot;font-family: Verdana; text-align: left; font-weight: 700; border: 1px solid rgb(0, 0, 0); border-collapse: collapse;&quot; border=&quot;1&quot;&gt;&lt;tbody&gt;&lt;tr&gt;&lt;td&gt;&lt;font face=&quot;Helvetica&quot;&gt;session_request_id&lt;/font&gt;&lt;/td&gt;&lt;td&gt;&lt;span style=&quot;font-weight: 400;&quot;&gt;&lt;font face=&quot;Helvetica&quot;&gt;UUID&lt;/font&gt;&lt;/span&gt;&lt;/td&gt;&lt;/tr&gt;&lt;tr&gt;&lt;td&gt;&lt;font face=&quot;Helvetica&quot;&gt;session_response_date&lt;/font&gt;&lt;/td&gt;&lt;td&gt;&lt;span style=&quot;font-weight: 400;&quot;&gt;&lt;font face=&quot;Helvetica&quot;&gt;DATE&lt;/font&gt;&lt;/span&gt;&lt;/td&gt;&lt;/tr&gt;&lt;tr&gt;&lt;td&gt;&lt;font face=&quot;Helvetica&quot;&gt;session_response_time&lt;/font&gt;&lt;/td&gt;&lt;td&gt;&lt;span style=&quot;font-weight: 400;&quot;&gt;&lt;font face=&quot;Helvetica&quot;&gt;TIME&lt;/font&gt;&lt;/span&gt;&lt;/td&gt;&lt;/tr&gt;&lt;/tbody&gt;&lt;/table&gt;" style="rhombus;whiteSpace=wrap;html=1;fillColor=#FF9999;strokeColor=#CC0000;labelBackgroundColor=none;" parent="1" vertex="1">
          <mxGeometry x="3940" y="-3445" width="540" height="280" as="geometry" />
        </mxCell>
        <mxCell id="OFezR76v9hvkfoCPLBLC-241" value="" style="endArrow=ERone;html=1;rounded=0;startArrow=ERmany;startFill=0;endFill=0;strokeColor=#FF9999;strokeWidth=3;edgeStyle=orthogonalEdgeStyle;exitX=1;exitY=0.5;exitDx=0;exitDy=0;entryX=0;entryY=0.5;entryDx=0;entryDy=0;" parent="1" source="OFezR76v9hvkfoCPLBLC-239" target="sLQFvHyLrfU1iwt5H_em-18" edge="1">
          <mxGeometry relative="1" as="geometry">
            <mxPoint x="5168" y="-3114.01" as="sourcePoint" />
            <mxPoint x="5640" y="-3249.994999999999" as="targetPoint" />
          </mxGeometry>
        </mxCell>
        <mxCell id="OFezR76v9hvkfoCPLBLC-246" value="" style="endArrow=ERone;html=1;rounded=0;startArrow=ERmany;startFill=0;endFill=0;strokeColor=#FF9999;strokeWidth=3;edgeStyle=orthogonalEdgeStyle;entryX=0.75;entryY=1;entryDx=0;entryDy=0;exitX=0.5;exitY=0;exitDx=0;exitDy=0;" parent="1" source="OFezR76v9hvkfoCPLBLC-239" target="-1b3vE4YZ-zce0Uezh61-29" edge="1">
          <mxGeometry relative="1" as="geometry">
            <mxPoint x="4205" y="-3999" as="sourcePoint" />
            <mxPoint x="5085" y="-3769.994999999999" as="targetPoint" />
          </mxGeometry>
        </mxCell>
        <mxCell id="OFezR76v9hvkfoCPLBLC-247" value="" style="endArrow=ERone;html=1;rounded=0;startArrow=ERmany;startFill=0;endFill=0;strokeColor=#00994D;strokeWidth=3;edgeStyle=orthogonalEdgeStyle;entryX=1;entryY=0.5;entryDx=0;entryDy=0;exitX=0;exitY=0.5;exitDx=0;exitDy=0;" parent="1" source="UxCQf2-TTkSFet72A3ar-100" target="-1b3vE4YZ-zce0Uezh61-30" edge="1">
          <mxGeometry relative="1" as="geometry">
            <mxPoint x="3900.38" y="-4076" as="sourcePoint" />
            <mxPoint x="2165" y="-3419.5" as="targetPoint" />
          </mxGeometry>
        </mxCell>
        <mxCell id="OFezR76v9hvkfoCPLBLC-248" value="" style="endArrow=ERone;html=1;rounded=0;startArrow=ERmany;startFill=0;endFill=0;strokeColor=#FF9999;strokeWidth=3;exitX=1;exitY=0.5;exitDx=0;exitDy=0;edgeStyle=orthogonalEdgeStyle;entryX=0.75;entryY=0;entryDx=0;entryDy=0;" parent="1" source="sLQFvHyLrfU1iwt5H_em-20" target="sLQFvHyLrfU1iwt5H_em-18" edge="1">
          <mxGeometry relative="1" as="geometry">
            <mxPoint x="6199.25" y="-4058.6099999999997" as="sourcePoint" />
            <mxPoint x="5310" y="-3430" as="targetPoint" />
          </mxGeometry>
        </mxCell>
        <mxCell id="OFezR76v9hvkfoCPLBLC-250" value="" style="endArrow=ERone;html=1;rounded=0;startArrow=ERmany;startFill=0;endFill=0;strokeColor=#FF9999;strokeWidth=3;exitX=1;exitY=0.5;exitDx=0;exitDy=0;entryX=0.5;entryY=0;entryDx=0;entryDy=0;edgeStyle=orthogonalEdgeStyle;" parent="1" source="sLQFvHyLrfU1iwt5H_em-22" target="sLQFvHyLrfU1iwt5H_em-18" edge="1">
          <mxGeometry relative="1" as="geometry">
            <mxPoint x="4474.999999999986" y="-6828" as="sourcePoint" />
            <mxPoint x="5939.44" y="-3968" as="targetPoint" />
            <Array as="points">
              <mxPoint x="4200" y="-7130" />
              <mxPoint x="4200" y="-5700" />
              <mxPoint x="5233" y="-5700" />
            </Array>
          </mxGeometry>
        </mxCell>
        <mxCell id="OFezR76v9hvkfoCPLBLC-251" value="" style="endArrow=ERone;html=1;rounded=0;startArrow=ERmany;startFill=0;endFill=0;strokeColor=#FF9999;strokeWidth=3;entryX=0.25;entryY=0;entryDx=0;entryDy=0;exitX=0.5;exitY=0;exitDx=0;exitDy=0;edgeStyle=orthogonalEdgeStyle;" parent="1" source="sLQFvHyLrfU1iwt5H_em-21" target="sLQFvHyLrfU1iwt5H_em-18" edge="1">
          <mxGeometry relative="1" as="geometry">
            <mxPoint x="5380" y="-6930" as="sourcePoint" />
            <mxPoint x="4707" y="-3190.75" as="targetPoint" />
            <Array as="points">
              <mxPoint x="-417" y="-8120" />
              <mxPoint x="5139" y="-8120" />
            </Array>
          </mxGeometry>
        </mxCell>
        <mxCell id="r91CUSoRpn2MUXCP_Wex-3" value="" style="verticalAlign=middle;align=center;overflow=fill;html=1;rounded=0;shadow=0;comic=0;labelBackgroundColor=none;strokeWidth=1;fontFamily=Verdana;fontSize=12;labelBorderColor=#0000FF;whiteSpace=wrap;fillColor=#66B2FF;strokeColor=#000099;" parent="1" vertex="1">
          <mxGeometry x="40" y="-6980" width="560" height="330" as="geometry" />
        </mxCell>
        <mxCell id="r91CUSoRpn2MUXCP_Wex-4" value="&lt;span style=&quot;text-wrap-mode: nowrap;&quot;&gt;&lt;b style=&quot;&quot;&gt;&lt;font style=&quot;font-size: 16px;&quot; face=&quot;Verdana&quot;&gt;&lt;u&gt;Менеджер-Уведомление&lt;/u&gt;&lt;br&gt;&lt;br&gt;&lt;/font&gt;&lt;/b&gt;&lt;/span&gt;&lt;table style=&quot;font-family: Verdana; text-align: left; font-weight: 700; border: 1px solid rgb(0, 0, 0); border-collapse: collapse;&quot; border=&quot;1&quot;&gt;&lt;tbody&gt;&lt;tr&gt;&lt;td&gt;&lt;font face=&quot;Helvetica&quot;&gt;manager_notification_id&lt;/font&gt;&lt;/td&gt;&lt;td&gt;&lt;span style=&quot;font-weight: 400;&quot;&gt;&lt;font face=&quot;Helvetica&quot;&gt;UUID&lt;/font&gt;&lt;/span&gt;&lt;/td&gt;&lt;/tr&gt;&lt;tr&gt;&lt;td&gt;&lt;font face=&quot;Helvetica&quot;&gt;assignment_date&lt;/font&gt;&lt;/td&gt;&lt;td&gt;&lt;span style=&quot;font-weight: 400;&quot;&gt;&lt;font face=&quot;Helvetica&quot;&gt;DATE&lt;/font&gt;&lt;/span&gt;&lt;/td&gt;&lt;/tr&gt;&lt;tr&gt;&lt;td&gt;&lt;font face=&quot;Helvetica&quot;&gt;assignment_time&lt;/font&gt;&lt;/td&gt;&lt;td&gt;&lt;span style=&quot;font-weight: 400;&quot;&gt;&lt;font face=&quot;Helvetica&quot;&gt;TIME&lt;/font&gt;&lt;/span&gt;&lt;/td&gt;&lt;/tr&gt;&lt;tr&gt;&lt;td&gt;&lt;font face=&quot;Helvetica&quot;&gt;manager_notification_flag&lt;/font&gt;&lt;/td&gt;&lt;td&gt;&lt;span style=&quot;font-weight: 400;&quot;&gt;&lt;font face=&quot;Helvetica&quot;&gt;BOOLEAN&lt;/font&gt;&lt;/span&gt;&lt;/td&gt;&lt;/tr&gt;&lt;tr&gt;&lt;td&gt;&lt;font face=&quot;Helvetica&quot;&gt;send_time&lt;/font&gt;&lt;/td&gt;&lt;td&gt;&lt;span style=&quot;font-weight: 400;&quot;&gt;&lt;font face=&quot;Helvetica&quot;&gt;TIME&lt;/font&gt;&lt;/span&gt;&lt;/td&gt;&lt;/tr&gt;&lt;tr&gt;&lt;td&gt;&lt;font face=&quot;Helvetica&quot;&gt;send_date&lt;/font&gt;&lt;/td&gt;&lt;td&gt;&lt;span style=&quot;font-weight: 400;&quot;&gt;&lt;font face=&quot;Helvetica&quot;&gt;DATE&lt;/font&gt;&lt;/span&gt;&lt;/td&gt;&lt;/tr&gt;&lt;tr&gt;&lt;td&gt;&lt;font face=&quot;Helvetica&quot;&gt;notification_text&lt;/font&gt;&lt;/td&gt;&lt;td&gt;&lt;span style=&quot;font-weight: 400;&quot;&gt;&lt;font face=&quot;Helvetica&quot;&gt;VARCHAR(1000)&lt;/font&gt;&lt;/span&gt;&lt;/td&gt;&lt;/tr&gt;&lt;/tbody&gt;&lt;/table&gt;" style="rhombus;whiteSpace=wrap;html=1;fillColor=#66B2FF;strokeColor=#000099;labelBackgroundColor=none;" parent="1" vertex="1">
          <mxGeometry x="40" y="-6977.68" width="556.69" height="327.68" as="geometry" />
        </mxCell>
        <mxCell id="r91CUSoRpn2MUXCP_Wex-6" value="" style="endArrow=ERmany;html=1;rounded=0;startArrow=ERone;startFill=0;endFill=0;strokeColor=#0000CC;strokeWidth=3;edgeStyle=orthogonalEdgeStyle;entryX=0;entryY=0;entryDx=0;entryDy=0;exitX=0;exitY=1;exitDx=0;exitDy=0;" parent="1" source="r91CUSoRpn2MUXCP_Wex-3" target="sLQFvHyLrfU1iwt5H_em-23" edge="1">
          <mxGeometry relative="1" as="geometry">
            <mxPoint x="320.375" y="-5861.753947368421" as="sourcePoint" />
            <mxPoint x="818.1700000000001" y="-5414.5" as="targetPoint" />
            <Array as="points">
              <mxPoint x="-590" y="-6650" />
            </Array>
          </mxGeometry>
        </mxCell>
        <mxCell id="JFzguqratn9V9arKZkWK-14" value="" style="endArrow=ERone;html=1;rounded=0;startArrow=ERone;startFill=0;endFill=0;strokeColor=#FF9999;strokeWidth=3;exitX=0;exitY=0.75;exitDx=0;exitDy=0;entryX=1;entryY=0.25;entryDx=0;entryDy=0;edgeStyle=orthogonalEdgeStyle;" parent="1" source="OFezR76v9hvkfoCPLBLC-191" target="sLQFvHyLrfU1iwt5H_em-23" edge="1">
          <mxGeometry relative="1" as="geometry">
            <mxPoint x="6700" y="-5819.25" as="sourcePoint" />
            <mxPoint x="1750" y="-5410" as="targetPoint" />
          </mxGeometry>
        </mxCell>
        <mxCell id="OFezR76v9hvkfoCPLBLC-149" value="&lt;div style=&quot;box-sizing: border-box; width: 100%; background-image: initial; background-position: initial; background-size: initial; background-repeat: initial; background-attachment: initial; background-origin: initial; background-clip: initial; padding: 2px;&quot;&gt;&lt;div style=&quot;text-align: center;&quot;&gt;&lt;b style=&quot;&quot;&gt;&lt;u style=&quot;&quot;&gt;&lt;font style=&quot;font-size: 16px;&quot;&gt;Банк (&lt;i style=&quot;&quot;&gt;внешний интерфейс&lt;/i&gt;)&lt;br&gt;&lt;font face=&quot;Helvetica&quot;&gt;&lt;br&gt;&lt;/font&gt;&lt;/font&gt;&lt;/u&gt;&lt;/b&gt;&lt;/div&gt;&lt;table style=&quot;font-weight: 700; border: 1px solid rgb(0, 0, 0); border-collapse: collapse;&quot; border=&quot;1&quot;&gt;&lt;tbody&gt;&lt;tr&gt;&lt;td&gt;&lt;font face=&quot;Helvetica&quot;&gt;bank_id&lt;/font&gt;&lt;/td&gt;&lt;td&gt;&lt;span style=&quot;font-weight: 400;&quot;&gt;&lt;font face=&quot;Helvetica&quot;&gt;UUID&lt;/font&gt;&lt;/span&gt;&lt;/td&gt;&lt;/tr&gt;&lt;tr&gt;&lt;td&gt;&lt;font face=&quot;Helvetica&quot;&gt;response_text&lt;/font&gt;&lt;/td&gt;&lt;td&gt;&lt;span style=&quot;font-weight: 400;&quot;&gt;&lt;font face=&quot;Helvetica&quot;&gt;VARCHAR(1000)&lt;/font&gt;&lt;/span&gt;&lt;/td&gt;&lt;/tr&gt;&lt;tr&gt;&lt;td&gt;&lt;font face=&quot;Helvetica&quot;&gt;api_key&lt;/font&gt;&lt;/td&gt;&lt;td&gt;&lt;span style=&quot;font-weight: 400;&quot;&gt;&lt;font face=&quot;Helvetica&quot;&gt;VARCHAR(64)&lt;/font&gt;&lt;/span&gt;&lt;/td&gt;&lt;/tr&gt;&lt;tr&gt;&lt;td&gt;&lt;font face=&quot;Helvetica&quot;&gt;endpoint_url&lt;/font&gt;&lt;/td&gt;&lt;td&gt;&lt;span style=&quot;font-weight: 400;&quot;&gt;&lt;font face=&quot;Helvetica&quot;&gt;VARCHAR (255)&lt;/font&gt;&lt;/span&gt;&lt;/td&gt;&lt;/tr&gt;&lt;tr&gt;&lt;td&gt;&lt;font face=&quot;Helvetica&quot;&gt;security_settings&lt;/font&gt;&lt;/td&gt;&lt;td&gt;&lt;span style=&quot;font-weight: 400;&quot;&gt;&lt;font face=&quot;Helvetica&quot;&gt;JSON&lt;/font&gt;&lt;/span&gt;&lt;/td&gt;&lt;/tr&gt;&lt;tr&gt;&lt;td&gt;&lt;font face=&quot;Helvetica&quot;&gt;integration_version&lt;/font&gt;&lt;/td&gt;&lt;td&gt;&lt;span style=&quot;font-weight: 400;&quot;&gt;&lt;font face=&quot;Helvetica&quot;&gt;VARCHAR(20)&lt;/font&gt;&lt;/span&gt;&lt;/td&gt;&lt;/tr&gt;&lt;tr&gt;&lt;td&gt;&lt;font face=&quot;Helvetica&quot;&gt;response_date&lt;/font&gt;&lt;/td&gt;&lt;td&gt;&lt;span style=&quot;font-weight: 400;&quot;&gt;&lt;font face=&quot;Helvetica&quot;&gt;DATE&lt;/font&gt;&lt;/span&gt;&lt;/td&gt;&lt;/tr&gt;&lt;tr&gt;&lt;td&gt;&lt;font face=&quot;Helvetica&quot;&gt;response_time&lt;/font&gt;&lt;/td&gt;&lt;td&gt;&lt;span style=&quot;font-weight: 400;&quot;&gt;&lt;font face=&quot;Helvetica&quot;&gt;TIME&lt;/font&gt;&lt;/span&gt;&lt;/td&gt;&lt;/tr&gt;&lt;/tbody&gt;&lt;/table&gt;&lt;/div&gt;" style="verticalAlign=top;align=left;overflow=fill;html=1;rounded=0;shadow=0;comic=0;labelBackgroundColor=#33FF99;strokeWidth=1;fontFamily=Verdana;fontSize=12;labelBorderColor=#009900;whiteSpace=wrap;strokeColor=#00994D;fillColor=#33FF99;" parent="1" vertex="1">
          <mxGeometry x="4465" y="-7150" width="340" height="200" as="geometry" />
        </mxCell>
        <mxCell id="JFzguqratn9V9arKZkWK-52" value="" style="endArrow=ERmany;html=1;rounded=0;startArrow=ERone;startFill=0;endFill=0;strokeColor=#FFB366;strokeWidth=2;edgeStyle=orthogonalEdgeStyle;exitX=1;exitY=0.75;exitDx=0;exitDy=0;entryX=0;entryY=0.25;entryDx=0;entryDy=0;" parent="1" source="sLQFvHyLrfU1iwt5H_em-3" target="r91CUSoRpn2MUXCP_Wex-3" edge="1">
          <mxGeometry width="50" height="50" relative="1" as="geometry">
            <mxPoint x="-1570" y="-7359" as="sourcePoint" />
            <mxPoint x="450" y="-7030" as="targetPoint" />
          </mxGeometry>
        </mxCell>
        <mxCell id="JFzguqratn9V9arKZkWK-60" value="" style="endArrow=ERmany;html=1;rounded=0;startArrow=ERone;startFill=0;endFill=0;strokeColor=#FFB366;strokeWidth=3;edgeStyle=orthogonalEdgeStyle;exitX=0.25;exitY=1;exitDx=0;exitDy=0;entryX=0.75;entryY=0;entryDx=0;entryDy=0;" parent="1" source="sLQFvHyLrfU1iwt5H_em-1" target="OFezR76v9hvkfoCPLBLC-149" edge="1">
          <mxGeometry relative="1" as="geometry">
            <mxPoint x="6910" y="-7585" as="sourcePoint" />
            <mxPoint x="6275.75" y="-7470" as="targetPoint" />
          </mxGeometry>
        </mxCell>
        <mxCell id="qZSWyS2fp3-Xb-i4Cqr1-100" value="" style="endArrow=ERmany;html=1;rounded=0;startArrow=ERone;startFill=0;endFill=0;strokeColor=#0000CC;strokeWidth=3;entryX=0;entryY=0.5;entryDx=0;entryDy=0;exitX=1;exitY=0.5;exitDx=0;exitDy=0;edgeStyle=orthogonalEdgeStyle;" parent="1" source="OFezR76v9hvkfoCPLBLC-20" target="r91CUSoRpn2MUXCP_Wex-3" edge="1">
          <mxGeometry relative="1" as="geometry">
            <mxPoint x="-660.56" y="-5916.25" as="sourcePoint" />
            <mxPoint x="-20.329999999999927" y="-6260" as="targetPoint" />
          </mxGeometry>
        </mxCell>
        <mxCell id="UxCQf2-TTkSFet72A3ar-13" value="" style="endArrow=ERone;html=1;rounded=0;startArrow=ERmany;startFill=0;endFill=0;strokeColor=#FFB366;entryX=0.5;entryY=0;entryDx=0;entryDy=0;strokeWidth=2;exitX=0.25;exitY=1;exitDx=0;exitDy=0;edgeStyle=orthogonalEdgeStyle;" parent="1" source="sLQFvHyLrfU1iwt5H_em-23" target="sLQFvHyLrfU1iwt5H_em-4" edge="1">
          <mxGeometry width="50" height="50" relative="1" as="geometry">
            <mxPoint x="-860" y="-4882.75" as="sourcePoint" />
            <mxPoint x="-1065.75" y="-3740" as="targetPoint" />
          </mxGeometry>
        </mxCell>
        <mxCell id="UxCQf2-TTkSFet72A3ar-35" value="" style="endArrow=ERone;html=1;rounded=0;startArrow=ERone;startFill=0;endFill=0;strokeColor=#0000CC;strokeWidth=3;entryX=0;entryY=0.75;entryDx=0;entryDy=0;edgeStyle=orthogonalEdgeStyle;exitX=0.75;exitY=0;exitDx=0;exitDy=0;" parent="1" source="sLQFvHyLrfU1iwt5H_em-23" target="sLQFvHyLrfU1iwt5H_em-5" edge="1">
          <mxGeometry relative="1" as="geometry">
            <mxPoint x="-340" y="-5540" as="sourcePoint" />
            <mxPoint x="4736.5" y="-5846.75" as="targetPoint" />
          </mxGeometry>
        </mxCell>
        <mxCell id="UxCQf2-TTkSFet72A3ar-41" value="" style="endArrow=ERone;html=1;rounded=0;startArrow=ERmany;startFill=0;endFill=0;strokeColor=#00994D;strokeWidth=3;exitX=0;exitY=0.25;exitDx=0;exitDy=0;edgeStyle=orthogonalEdgeStyle;entryX=0.75;entryY=1;entryDx=0;entryDy=0;" parent="1" source="UxCQf2-TTkSFet72A3ar-42" target="-1b3vE4YZ-zce0Uezh61-26" edge="1">
          <mxGeometry relative="1" as="geometry">
            <mxPoint x="5427.31" y="-5382.75" as="sourcePoint" />
            <mxPoint x="-1550" y="-5140" as="targetPoint" />
          </mxGeometry>
        </mxCell>
        <mxCell id="UxCQf2-TTkSFet72A3ar-42" value="" style="verticalAlign=middle;align=center;overflow=fill;html=1;rounded=0;shadow=0;comic=0;labelBackgroundColor=none;strokeWidth=1;fontFamily=Verdana;fontSize=12;labelBorderColor=#0000FF;whiteSpace=wrap;fillColor=#66B2FF;strokeColor=#000099;" parent="1" vertex="1">
          <mxGeometry x="3220" y="-4950.5" width="460" height="410.5" as="geometry" />
        </mxCell>
        <mxCell id="UxCQf2-TTkSFet72A3ar-43" value="&lt;span style=&quot;text-wrap-mode: nowrap;&quot;&gt;&lt;b style=&quot;&quot;&gt;&lt;font style=&quot;font-size: 16px;&quot; face=&quot;Verdana&quot;&gt;&lt;u&gt;Пользователь-Отзыв&lt;/u&gt;&lt;br&gt;&lt;br&gt;&lt;/font&gt;&lt;/b&gt;&lt;/span&gt;&lt;table style=&quot;font-family: Verdana; text-align: left; font-weight: 700; border: 1px solid rgb(0, 0, 0); border-collapse: collapse;&quot; border=&quot;1&quot;&gt;&lt;tbody&gt;&lt;tr&gt;&lt;td&gt;&lt;font face=&quot;Helvetica&quot;&gt;user_review_id&lt;/font&gt;&lt;/td&gt;&lt;td&gt;&lt;span style=&quot;font-weight: 400;&quot;&gt;&lt;font face=&quot;Helvetica&quot;&gt;UUID&lt;/font&gt;&lt;/span&gt;&lt;/td&gt;&lt;/tr&gt;&lt;tr&gt;&lt;td&gt;&lt;font face=&quot;Helvetica&quot;&gt;criterion_score&lt;/font&gt;&lt;/td&gt;&lt;td&gt;&lt;span style=&quot;font-weight: 400;&quot;&gt;&lt;font face=&quot;Helvetica&quot;&gt;DECIMAL(3, 2)&lt;/font&gt;&lt;/span&gt;&lt;/td&gt;&lt;/tr&gt;&lt;tr&gt;&lt;td&gt;&lt;font face=&quot;Helvetica&quot;&gt;overall_rating&lt;/font&gt;&lt;/td&gt;&lt;td&gt;&lt;span style=&quot;font-weight: 400;&quot;&gt;&lt;font face=&quot;Helvetica&quot;&gt;DECIMAL(3, 2)&lt;/font&gt;&lt;/span&gt;&lt;/td&gt;&lt;/tr&gt;&lt;tr&gt;&lt;td&gt;&lt;font face=&quot;Helvetica&quot;&gt;comment_text&lt;/font&gt;&lt;/td&gt;&lt;td&gt;&lt;span style=&quot;font-weight: 400;&quot;&gt;&lt;font face=&quot;Helvetica&quot;&gt;VARCHAR(1000)&lt;/font&gt;&lt;/span&gt;&lt;/td&gt;&lt;/tr&gt;&lt;/tbody&gt;&lt;/table&gt;" style="rhombus;whiteSpace=wrap;html=1;fillColor=#66B2FF;strokeColor=#000099;labelBackgroundColor=none;" parent="1" vertex="1">
          <mxGeometry x="3215" y="-4950.5" width="460" height="410.5" as="geometry" />
        </mxCell>
        <mxCell id="UxCQf2-TTkSFet72A3ar-47" value="" style="endArrow=ERone;html=1;rounded=0;startArrow=ERmany;startFill=0;endFill=0;strokeColor=#0000CC;strokeWidth=3;exitX=1;exitY=0.5;exitDx=0;exitDy=0;entryX=0.5;entryY=0;entryDx=0;entryDy=0;edgeStyle=orthogonalEdgeStyle;" parent="1" source="UxCQf2-TTkSFet72A3ar-42" target="sLQFvHyLrfU1iwt5H_em-11" edge="1">
          <mxGeometry relative="1" as="geometry">
            <mxPoint x="6206.119999999999" y="-5150" as="sourcePoint" />
            <mxPoint x="6299.5" y="-5140.5" as="targetPoint" />
          </mxGeometry>
        </mxCell>
        <mxCell id="UxCQf2-TTkSFet72A3ar-90" value="" style="endArrow=ERone;html=1;rounded=0;startArrow=ERmany;startFill=0;endFill=0;strokeColor=#FF9999;strokeWidth=3;exitX=0.75;exitY=1;exitDx=0;exitDy=0;entryX=1;entryY=0.25;entryDx=0;entryDy=0;edgeStyle=orthogonalEdgeStyle;" parent="1" source="sLQFvHyLrfU1iwt5H_em-19" target="sLQFvHyLrfU1iwt5H_em-18" edge="1">
          <mxGeometry relative="1" as="geometry">
            <mxPoint x="6820" y="-6999" as="sourcePoint" />
            <mxPoint x="6910" y="-5890" as="targetPoint" />
          </mxGeometry>
        </mxCell>
        <mxCell id="UxCQf2-TTkSFet72A3ar-98" value="&lt;font style=&quot;font-size: 16px;&quot;&gt;&lt;b&gt;&lt;u&gt;Список критериев запроса&lt;/u&gt;&lt;br&gt;&lt;br&gt;&lt;/b&gt;&lt;table style=&quot;font-size: 12px; text-align: left; font-weight: 700; border: 1px solid rgb(0, 0, 0); border-collapse: collapse;&quot; border=&quot;1&quot;&gt;&lt;tbody&gt;&lt;tr&gt;&lt;td&gt;&lt;font face=&quot;Helvetica&quot;&gt;criterion_id&lt;/font&gt;&lt;/td&gt;&lt;td&gt;&lt;span style=&quot;font-weight: 400;&quot;&gt;&lt;font face=&quot;Helvetica&quot;&gt;UUID&lt;/font&gt;&lt;/span&gt;&lt;/td&gt;&lt;/tr&gt;&lt;tr&gt;&lt;td&gt;&lt;font face=&quot;Helvetica&quot;&gt;criterion_text&lt;/font&gt;&lt;/td&gt;&lt;td&gt;&lt;span style=&quot;font-weight: 400;&quot;&gt;&lt;font face=&quot;Helvetica&quot;&gt;VARCHAR(255)&lt;/font&gt;&lt;/span&gt;&lt;/td&gt;&lt;/tr&gt;&lt;/tbody&gt;&lt;/table&gt;&lt;/font&gt;" style="verticalAlign=middle;align=center;overflow=fill;html=1;rounded=0;shadow=0;comic=0;labelBackgroundColor=none;strokeWidth=1;fontFamily=Verdana;fontSize=12;labelBorderColor=#0000FF;whiteSpace=wrap;fillColor=#FFB366;strokeColor=#994C00;" parent="1" vertex="1">
          <mxGeometry x="3460" y="-2620" width="380" height="110" as="geometry" />
        </mxCell>
        <mxCell id="UxCQf2-TTkSFet72A3ar-100" value="" style="verticalAlign=middle;align=center;overflow=fill;html=1;rounded=0;shadow=0;comic=0;labelBackgroundColor=none;strokeWidth=1;fontFamily=Verdana;fontSize=12;labelBorderColor=#0000FF;whiteSpace=wrap;fillColor=#66B2FF;strokeColor=#000099;" parent="1" vertex="1">
          <mxGeometry x="1470" y="-2790" width="560" height="208.38" as="geometry" />
        </mxCell>
        <mxCell id="UxCQf2-TTkSFet72A3ar-101" value="&lt;span style=&quot;text-wrap-mode: nowrap;&quot;&gt;&lt;b style=&quot;&quot;&gt;&lt;font style=&quot;font-size: 16px;&quot; face=&quot;Verdana&quot;&gt;&lt;u&gt;Администратор-Запрос&lt;/u&gt;&lt;br&gt;&lt;br&gt;&lt;/font&gt;&lt;/b&gt;&lt;/span&gt;&lt;table style=&quot;font-family: Verdana; text-align: left; font-weight: 700; border: 1px solid rgb(0, 0, 0); border-collapse: collapse;&quot; border=&quot;1&quot;&gt;&lt;tbody&gt;&lt;tr&gt;&lt;td&gt;&lt;font face=&quot;Helvetica&quot;&gt;admin_request_id&lt;/font&gt;&lt;/td&gt;&lt;td&gt;&lt;span style=&quot;font-weight: 400;&quot;&gt;&lt;font face=&quot;Helvetica&quot;&gt;UUID&lt;/font&gt;&lt;/span&gt;&lt;/td&gt;&lt;/tr&gt;&lt;tr&gt;&lt;td&gt;&lt;font face=&quot;Helvetica&quot;&gt;criterion_selected_flag&lt;/font&gt;&lt;/td&gt;&lt;td&gt;&lt;span style=&quot;font-weight: 400;&quot;&gt;&lt;font face=&quot;Helvetica&quot;&gt;BOOLEAN&lt;/font&gt;&lt;/span&gt;&lt;/td&gt;&lt;/tr&gt;&lt;/tbody&gt;&lt;/table&gt;" style="rhombus;whiteSpace=wrap;html=1;fillColor=#66B2FF;strokeColor=#000099;labelBackgroundColor=none;" parent="1" vertex="1">
          <mxGeometry x="1470" y="-2790" width="560" height="208.38" as="geometry" />
        </mxCell>
        <mxCell id="UxCQf2-TTkSFet72A3ar-102" value="" style="verticalAlign=middle;align=center;overflow=fill;html=1;rounded=0;shadow=0;comic=0;labelBackgroundColor=none;strokeWidth=1;fontFamily=Verdana;fontSize=12;labelBorderColor=#0000FF;whiteSpace=wrap;fillColor=#66B2FF;strokeColor=#000099;" parent="1" vertex="1">
          <mxGeometry x="1440" y="-3300" width="480" height="240" as="geometry" />
        </mxCell>
        <mxCell id="UxCQf2-TTkSFet72A3ar-103" value="&lt;span style=&quot;text-wrap-mode: nowrap;&quot;&gt;&lt;b style=&quot;&quot;&gt;&lt;font style=&quot;font-size: 16px;&quot; face=&quot;Verdana&quot;&gt;&lt;u&gt;Менеджер-Запрос&lt;/u&gt;&lt;br&gt;&lt;br&gt;&lt;/font&gt;&lt;/b&gt;&lt;/span&gt;&lt;table style=&quot;font-family: Verdana; text-align: left; font-weight: 700; border: 1px solid rgb(0, 0, 0); border-collapse: collapse;&quot; border=&quot;1&quot;&gt;&lt;tbody&gt;&lt;tr&gt;&lt;td&gt;&lt;font face=&quot;Helvetica&quot;&gt;manager_request_id&lt;/font&gt;&lt;/td&gt;&lt;td&gt;&lt;span style=&quot;font-weight: 400;&quot;&gt;&lt;font face=&quot;Helvetica&quot;&gt;UUID&lt;/font&gt;&lt;/span&gt;&lt;/td&gt;&lt;/tr&gt;&lt;tr&gt;&lt;td&gt;&lt;font face=&quot;Helvetica&quot;&gt;criterion_selected_flag&lt;/font&gt;&lt;/td&gt;&lt;td&gt;&lt;span style=&quot;font-weight: 400;&quot;&gt;&lt;font face=&quot;Helvetica&quot;&gt;BOOLEAN&lt;/font&gt;&lt;/span&gt;&lt;/td&gt;&lt;/tr&gt;&lt;/tbody&gt;&lt;/table&gt;" style="rhombus;whiteSpace=wrap;html=1;fillColor=#66B2FF;strokeColor=#000099;labelBackgroundColor=none;" parent="1" vertex="1">
          <mxGeometry x="1440" y="-3298.5" width="480" height="238.5" as="geometry" />
        </mxCell>
        <mxCell id="UxCQf2-TTkSFet72A3ar-106" value="" style="endArrow=ERone;html=1;rounded=0;startArrow=ERmany;startFill=0;endFill=0;strokeColor=#00994D;strokeWidth=3;entryX=1;entryY=0.75;entryDx=0;entryDy=0;edgeStyle=orthogonalEdgeStyle;exitX=0.5;exitY=0;exitDx=0;exitDy=0;" parent="1" source="UxCQf2-TTkSFet72A3ar-102" target="-1b3vE4YZ-zce0Uezh61-29" edge="1">
          <mxGeometry relative="1" as="geometry">
            <mxPoint x="3278" y="-3879.75" as="sourcePoint" />
            <mxPoint x="2232.4400000000005" y="-3905" as="targetPoint" />
          </mxGeometry>
        </mxCell>
        <mxCell id="UxCQf2-TTkSFet72A3ar-108" value="" style="endArrow=ERone;html=1;rounded=0;startArrow=ERmany;startFill=0;endFill=0;strokeColor=#FFB366;entryX=0.25;entryY=0;entryDx=0;entryDy=0;strokeWidth=2;exitX=1;exitY=0.75;exitDx=0;exitDy=0;edgeStyle=orthogonalEdgeStyle;" parent="1" source="UxCQf2-TTkSFet72A3ar-100" target="UxCQf2-TTkSFet72A3ar-98" edge="1">
          <mxGeometry width="50" height="50" relative="1" as="geometry">
            <mxPoint x="3589.33" y="-3490" as="sourcePoint" />
            <mxPoint x="3822.5" y="-2472.625" as="targetPoint" />
          </mxGeometry>
        </mxCell>
        <mxCell id="UxCQf2-TTkSFet72A3ar-109" value="" style="endArrow=ERone;html=1;rounded=0;startArrow=ERmany;startFill=0;endFill=0;strokeColor=#FFB366;entryX=0.5;entryY=0;entryDx=0;entryDy=0;strokeWidth=2;exitX=1;exitY=0.75;exitDx=0;exitDy=0;edgeStyle=orthogonalEdgeStyle;" parent="1" source="UxCQf2-TTkSFet72A3ar-102" target="UxCQf2-TTkSFet72A3ar-98" edge="1">
          <mxGeometry width="50" height="50" relative="1" as="geometry">
            <mxPoint x="3270" y="-3620" as="sourcePoint" />
            <mxPoint x="3902.5" y="-2556.75" as="targetPoint" />
          </mxGeometry>
        </mxCell>
        <mxCell id="UxCQf2-TTkSFet72A3ar-117" value="" style="endArrow=ERmany;html=1;rounded=0;startArrow=ERone;startFill=0;endFill=0;strokeColor=#0000CC;strokeWidth=3;edgeStyle=orthogonalEdgeStyle;exitX=0;exitY=0.5;exitDx=0;exitDy=0;entryX=1;entryY=0.5;entryDx=0;entryDy=0;" parent="1" source="UxCQf2-TTkSFet72A3ar-123" target="UxCQf2-TTkSFet72A3ar-102" edge="1">
          <mxGeometry relative="1" as="geometry">
            <mxPoint x="3750" y="-3446.500000000001" as="sourcePoint" />
            <mxPoint x="3490" y="-3883.5" as="targetPoint" />
          </mxGeometry>
        </mxCell>
        <mxCell id="UxCQf2-TTkSFet72A3ar-118" value="" style="endArrow=ERmany;html=1;rounded=0;startArrow=ERone;startFill=0;endFill=0;strokeColor=#0000CC;strokeWidth=3;exitX=0;exitY=0.75;exitDx=0;exitDy=0;entryX=1;entryY=0.5;entryDx=0;entryDy=0;edgeStyle=orthogonalEdgeStyle;" parent="1" source="UxCQf2-TTkSFet72A3ar-123" target="UxCQf2-TTkSFet72A3ar-101" edge="1">
          <mxGeometry relative="1" as="geometry">
            <mxPoint x="3750" y="-3446.500000000001" as="sourcePoint" />
            <mxPoint x="3500" y="-3328" as="targetPoint" />
          </mxGeometry>
        </mxCell>
        <mxCell id="UxCQf2-TTkSFet72A3ar-120" value="" style="endArrow=ERmany;html=1;rounded=0;startArrow=ERone;startFill=0;endFill=0;strokeColor=#FFB366;entryX=0;entryY=0.75;entryDx=0;entryDy=0;strokeWidth=2;exitX=0.75;exitY=0;exitDx=0;exitDy=0;edgeStyle=orthogonalEdgeStyle;" parent="1" source="UxCQf2-TTkSFet72A3ar-98" target="OFezR76v9hvkfoCPLBLC-238" edge="1">
          <mxGeometry width="50" height="50" relative="1" as="geometry">
            <mxPoint x="3982.5" y="-2472.625" as="sourcePoint" />
            <mxPoint x="4455" y="-2047" as="targetPoint" />
            <Array as="points">
              <mxPoint x="3745" y="-3235" />
            </Array>
          </mxGeometry>
        </mxCell>
        <mxCell id="UxCQf2-TTkSFet72A3ar-121" value="" style="endArrow=ERone;html=1;rounded=0;startArrow=ERmany;startFill=0;endFill=0;strokeColor=#00994D;strokeWidth=3;exitX=0;exitY=0.5;exitDx=0;exitDy=0;entryX=0.75;entryY=1;entryDx=0;entryDy=0;edgeStyle=orthogonalEdgeStyle;" parent="1" source="OFezR76v9hvkfoCPLBLC-213" target="-1b3vE4YZ-zce0Uezh61-28" edge="1">
          <mxGeometry relative="1" as="geometry">
            <mxPoint x="5400" y="-4265" as="sourcePoint" />
            <mxPoint x="2690" y="-2669" as="targetPoint" />
          </mxGeometry>
        </mxCell>
        <mxCell id="UxCQf2-TTkSFet72A3ar-123" value="&lt;font style=&quot;&quot;&gt;&lt;br&gt;&lt;span style=&quot;font-weight: bold; font-size: 16px;&quot;&gt;&lt;u&gt;Запрос&lt;/u&gt;&lt;br&gt;&lt;br&gt;&lt;/span&gt;&lt;table style=&quot;text-align: left; font-weight: 700; border: 1px solid rgb(0, 0, 0); border-collapse: collapse;&quot; border=&quot;1&quot;&gt;&lt;tbody&gt;&lt;tr&gt;&lt;td&gt;&lt;font face=&quot;Helvetica&quot;&gt;request_id&lt;/font&gt;&lt;/td&gt;&lt;td&gt;&lt;span style=&quot;font-weight: 400;&quot;&gt;&lt;font face=&quot;Helvetica&quot;&gt;UUID&lt;/font&gt;&lt;/span&gt;&lt;/td&gt;&lt;/tr&gt;&lt;tr&gt;&lt;td&gt;&lt;font face=&quot;Helvetica&quot;&gt;session_request_date&lt;/font&gt;&lt;/td&gt;&lt;td&gt;&lt;span style=&quot;font-weight: 400;&quot;&gt;&lt;font face=&quot;Helvetica&quot;&gt;DATE&lt;/font&gt;&lt;/span&gt;&lt;/td&gt;&lt;/tr&gt;&lt;tr&gt;&lt;td&gt;&lt;font face=&quot;Helvetica&quot;&gt;session_request_time&lt;/font&gt;&lt;/td&gt;&lt;td&gt;&lt;span style=&quot;font-weight: 400;&quot;&gt;&lt;font face=&quot;Helvetica&quot;&gt;TIME&lt;/font&gt;&lt;/span&gt;&lt;/td&gt;&lt;/tr&gt;&lt;/tbody&gt;&lt;/table&gt;&lt;/font&gt;" style="verticalAlign=middle;align=center;overflow=fill;html=1;rounded=0;shadow=0;comic=0;labelBackgroundColor=none;strokeWidth=1;fontFamily=Verdana;fontSize=12;labelBorderColor=#0000FF;whiteSpace=wrap;fillColor=#66B2FF;strokeColor=#000099;" parent="1" vertex="1">
          <mxGeometry x="3110" y="-3480" width="380" height="140" as="geometry" />
        </mxCell>
        <mxCell id="tLnLOQmMqDY4FNd1QXmi-27" value="" style="endArrow=ERone;html=1;rounded=0;startArrow=ERone;startFill=0;endFill=0;strokeColor=#FFB366;strokeWidth=2;exitX=1;exitY=0;exitDx=0;exitDy=0;entryX=0;entryY=0.25;entryDx=0;entryDy=0;edgeStyle=orthogonalEdgeStyle;" parent="1" source="sLQFvHyLrfU1iwt5H_em-7" target="sLQFvHyLrfU1iwt5H_em-2" edge="1">
          <mxGeometry width="50" height="50" relative="1" as="geometry">
            <mxPoint x="1308.3099999999995" y="-7220" as="sourcePoint" />
            <mxPoint x="2945" y="-8270" as="targetPoint" />
            <Array as="points">
              <mxPoint x="-80" y="-7590" />
              <mxPoint x="-80" y="-7920" />
              <mxPoint x="2470" y="-7920" />
            </Array>
          </mxGeometry>
        </mxCell>
        <mxCell id="tLnLOQmMqDY4FNd1QXmi-28" value="" style="endArrow=ERone;html=1;rounded=0;startArrow=ERmany;startFill=0;endFill=0;strokeColor=#FFB366;strokeWidth=2;entryX=0;entryY=0.75;entryDx=0;entryDy=0;exitX=0.75;exitY=0;exitDx=0;exitDy=0;edgeStyle=orthogonalEdgeStyle;" parent="1" source="r91CUSoRpn2MUXCP_Wex-3" target="sLQFvHyLrfU1iwt5H_em-2" edge="1">
          <mxGeometry width="50" height="50" relative="1" as="geometry">
            <mxPoint x="1870" y="-6370" as="sourcePoint" />
            <mxPoint x="2630" y="-8270" as="targetPoint" />
          </mxGeometry>
        </mxCell>
        <mxCell id="tLnLOQmMqDY4FNd1QXmi-30" value="" style="endArrow=ERone;html=1;rounded=0;startArrow=ERmany;startFill=0;endFill=0;strokeColor=#FFB366;strokeWidth=2;exitX=1;exitY=0;exitDx=0;exitDy=0;entryX=0;entryY=0.5;entryDx=0;entryDy=0;edgeStyle=orthogonalEdgeStyle;" parent="1" source="sLQFvHyLrfU1iwt5H_em-23" target="sLQFvHyLrfU1iwt5H_em-2" edge="1">
          <mxGeometry width="50" height="50" relative="1" as="geometry">
            <mxPoint x="2385" y="-6648" as="sourcePoint" />
            <mxPoint x="2480" y="-8269.25" as="targetPoint" />
          </mxGeometry>
        </mxCell>
        <mxCell id="tLnLOQmMqDY4FNd1QXmi-31" value="" style="endArrow=ERone;html=1;rounded=0;startArrow=ERone;startFill=0;endFill=0;strokeColor=#FFB366;strokeWidth=2;exitX=0.5;exitY=0;exitDx=0;exitDy=0;entryX=0.5;entryY=1;entryDx=0;entryDy=0;edgeStyle=orthogonalEdgeStyle;" parent="1" source="-1b3vE4YZ-zce0Uezh61-27" target="sLQFvHyLrfU1iwt5H_em-2" edge="1">
          <mxGeometry width="50" height="50" relative="1" as="geometry">
            <mxPoint x="4844" y="-7108" as="sourcePoint" />
            <mxPoint x="3710" y="-8270" as="targetPoint" />
          </mxGeometry>
        </mxCell>
        <mxCell id="tLnLOQmMqDY4FNd1QXmi-32" value="" style="endArrow=ERone;html=1;rounded=0;startArrow=ERmany;startFill=0;endFill=0;strokeColor=#FFB366;strokeWidth=2;exitX=0.75;exitY=0;exitDx=0;exitDy=0;entryX=0.25;entryY=1;entryDx=0;entryDy=0;edgeStyle=orthogonalEdgeStyle;" parent="1" source="sLQFvHyLrfU1iwt5H_em-25" target="sLQFvHyLrfU1iwt5H_em-2" edge="1">
          <mxGeometry width="50" height="50" relative="1" as="geometry">
            <mxPoint x="4840" y="-5460" as="sourcePoint" />
            <mxPoint x="3100" y="-8270" as="targetPoint" />
          </mxGeometry>
        </mxCell>
        <mxCell id="WTXXP2WzJrl9AqToeU94-2" value="" style="endArrow=ERone;html=1;rounded=0;startArrow=ERmany;startFill=0;endFill=0;strokeColor=#FF9999;strokeWidth=3;entryX=1;entryY=0;entryDx=0;entryDy=0;exitX=0.25;exitY=0;exitDx=0;exitDy=0;edgeStyle=orthogonalEdgeStyle;" parent="1" source="OFezR76v9hvkfoCPLBLC-238" target="-1b3vE4YZ-zce0Uezh61-30" edge="1">
          <mxGeometry relative="1" as="geometry">
            <mxPoint x="5210" y="-3380" as="sourcePoint" />
            <mxPoint x="1825" y="-4268" as="targetPoint" />
            <Array as="points">
              <mxPoint x="4075" y="-3500" />
              <mxPoint x="930" y="-3500" />
            </Array>
          </mxGeometry>
        </mxCell>
      </root>
    </mxGraphModel>
  </diagram>
</mxfile>
